<svg width="329" height="3" viewBox="0 0 329 3" fill="none" xmlns="http://www.w3.org/2000/svg">
<path d="M0.1 1.5V2.00001L0.103461 1.99999L0.1 1.5ZM11.9425 1.61502L11.8008 1.13552L11.9425 1.61502ZM14.7525 1.04142L14.7176 1.5402L14.7525 1.04142ZM18.9675 1.20577L18.9635 1.70576L18.9675 1.20577ZM24.5875 1.16202L24.5756 0.662161L24.5875 1.16202ZM25.9925 1.19098L25.96 1.68992L25.9925 1.19098ZM30.2075 1.13356L30.1615 0.635679L30.2075 1.13356ZM31.6125 1.29292L31.7645 0.816589L31.6125 1.29292ZM33.0175 1.74135L33.1695 1.26503L33.0175 1.74135ZM37.2325 1.0191L37.2244 1.51903L37.2325 1.0191ZM38.6375 1.04196L38.6294 1.54189L38.6375 1.04196ZM41.4475 1.03035L41.442 0.530382L41.4475 1.03035ZM48.4725 1.24493L48.4278 1.74293L48.4725 1.24493ZM51.2825 1.441L51.2776 1.94097L51.2825 1.441ZM55.4975 1.30389L55.4602 0.805282L55.4975 1.30389ZM56.9025 1.42321L56.7837 1.90889L56.9025 1.42321ZM57.605 1.59505L57.4862 2.08073L57.605 1.59505ZM58.3075 1.76689L58.4263 1.28121L58.3075 1.76689ZM59.7125 1.9049L59.6884 1.40547L59.7125 1.9049ZM63.9275 1.74747L63.9142 1.24765L63.9275 1.74747ZM65.3325 1.62424L65.2589 1.12969L65.3325 1.62424ZM66.7375 1.41505L66.8111 1.9096L66.7375 1.41505ZM70.9525 1.54075L70.9261 2.04005L70.9525 1.54075ZM76.5725 1.73266L76.6018 2.2318L76.5725 1.73266ZM77.9775 1.65009L77.9482 1.15095L77.9775 1.65009ZM82.1925 1.30389L82.333 0.824023L82.1925 1.30389ZM83.5975 1.71517L83.457 2.19503L83.5975 1.71517ZM85.0025 1.81726L84.9296 1.32261L85.0025 1.81726ZM86.4075 1.61017L86.4804 2.10483L86.4075 1.61017ZM87.8125 1.49455L87.8039 0.994623L87.8125 1.49455ZM94.8375 1.16421L94.8186 1.66385L94.8375 1.16421ZM96.2425 1.2105L96.2285 1.7103L96.2425 1.2105ZM97.6475 1.24989L97.6335 1.7497L97.6475 1.24989ZM101.862 1.90415L101.854 2.40409L101.862 1.90415ZM110.292 1.3983L110.248 0.900293L110.292 1.3983ZM113.102 1.3736L112.989 1.8605L113.102 1.3736ZM114.507 1.70169L114.621 1.21479L114.507 1.70169ZM115.912 1.82106L115.881 1.32206L115.912 1.82106ZM116.615 1.77637L116.583 1.27738L116.615 1.77637ZM119.425 1.51529L119.486 2.0116L119.425 1.51529ZM120.127 1.42943L120.067 0.933124L120.127 1.42943ZM121.532 1.25839L121.472 0.762024L121.532 1.25839ZM122.938 1.08802L122.998 1.58438L122.938 1.08802ZM124.342 1.01189L124.336 1.51185L124.342 1.01189ZM127.152 1.1407L127.081 1.63555L127.152 1.1407ZM132.772 1.15215L132.749 0.652704L132.772 1.15215ZM142.607 1.25538L142.537 0.760342L142.607 1.25538ZM144.012 1.2424L144.074 0.746167L144.012 1.2424ZM144.715 1.32911L144.654 1.82535L144.715 1.32911ZM152.442 1.11739L152.507 0.621602L152.442 1.11739ZM153.145 1.2092L153.08 1.70498L153.145 1.2092ZM153.848 1.30101L153.783 1.7968L153.848 1.30101ZM166.492 1.59949L166.557 2.09534L166.492 1.59949ZM167.897 1.41746L167.833 0.9216L167.897 1.41746ZM169.302 1.45709L169.394 0.965514L169.302 1.45709ZM170.708 1.71838L170.616 2.20995L170.708 1.71838ZM172.113 1.69918L172.217 2.18818L172.113 1.69918ZM172.815 1.54933L172.711 1.06033L172.815 1.54933ZM173.518 1.39948L173.413 0.910484L173.518 1.39948ZM174.923 1.28612L174.897 1.78544L174.923 1.28612ZM176.327 1.35908L176.353 0.859751L176.327 1.35908ZM177.732 1.48621L177.796 0.990323L177.732 1.48621ZM179.137 1.66752L179.074 2.1634L179.137 1.66752ZM180.542 1.81658L180.501 2.31486L180.542 1.81658ZM181.947 1.93341L181.989 1.43513L181.947 1.93341ZM183.352 1.80613L183.48 2.28952L183.352 1.80613ZM184.055 1.62043L183.927 1.13703L184.055 1.62043ZM184.757 1.43473L184.63 0.951337L184.757 1.43473ZM186.162 1.18253L186.115 0.684758L186.162 1.18253ZM187.567 1.04952L187.615 1.5473L187.567 1.04952ZM188.972 1.23909L189.144 0.769331L188.972 1.23909ZM190.377 1.75125L190.206 2.22101L190.377 1.75125ZM193.188 1.96036L193.176 1.46048L193.188 1.96036ZM194.592 1.7953L194.488 1.30624L194.592 1.7953ZM195.997 1.4965L196.102 1.98556L195.997 1.4965ZM197.402 1.38415L197.429 0.884842L197.402 1.38415ZM198.807 1.45824L198.781 1.95755L198.807 1.45824ZM200.212 1.53975L200.181 2.03875L200.212 1.53975ZM201.617 1.62866L201.649 1.12966L201.617 1.62866ZM203.022 1.58416L203.085 2.08019L203.022 1.58416ZM204.427 1.40624L204.365 0.910203L204.427 1.40624ZM205.832 1.36153L205.864 0.862519L205.832 1.36153ZM207.237 1.45002L207.206 1.94903L207.237 1.45002ZM208.643 1.62283L208.733 1.131L208.643 1.62283ZM209.345 1.75139L209.255 2.24322L209.345 1.75139ZM210.048 1.87995L209.957 2.37178L210.048 1.87995ZM211.452 1.91142L211.384 1.41612L211.452 1.91142ZM212.857 1.71722L212.926 2.21251L212.857 1.71722ZM214.262 1.57068L214.298 2.06945L214.262 1.57068ZM215.667 1.4718L215.632 0.973033L215.667 1.4718ZM217.072 1.53538L216.993 2.02903L217.072 1.53538ZM218.477 1.76142L218.557 1.26776L218.477 1.76142ZM219.882 1.6785L220.017 2.16011L219.882 1.6785ZM221.287 1.28662L221.153 0.805001L221.287 1.28662ZM222.692 1.11465L222.675 1.61436L222.692 1.11465ZM228.312 1.65378L228.17 1.17446L228.312 1.65378ZM229.717 1.23667L229.86 1.71599L229.717 1.23667ZM231.122 1.06403L231.148 0.564679L231.122 1.06403ZM232.527 1.13585L232.502 1.6352L232.527 1.13585ZM233.932 1.18992L233.92 1.68975L233.932 1.18992ZM236.742 1.28952L236.775 0.790547L236.742 1.28952ZM238.147 1.3798L238.115 1.87877L238.147 1.3798ZM239.552 1.57144L239.45 2.06091L239.552 1.57144ZM240.957 1.86443L241.06 1.37496L240.957 1.86443ZM242.362 1.84329L242.479 2.32964L242.362 1.84329ZM243.767 1.50802L243.651 1.02168L243.767 1.50802ZM245.173 1.30801L245.196 1.80748L245.173 1.30801ZM246.577 1.24325L246.554 0.743782L246.577 1.24325ZM249.387 1.12262L249.367 0.623062L249.387 1.12262ZM250.792 1.06889L250.775 0.569186L250.792 1.06889ZM253.602 1.09365L253.671 0.598421L253.602 1.09365ZM255.007 1.28912L254.939 1.78435L255.007 1.28912ZM256.413 1.30932L256.358 0.812333L256.413 1.30932ZM257.818 1.15425L257.763 0.657269L257.818 1.15425ZM259.223 1.09924L259.206 1.59898L259.223 1.09924ZM260.628 1.14428L260.644 0.644541L260.628 1.14428ZM262.033 1.14147L262.051 1.64115L262.033 1.14147ZM263.438 1.09081L263.419 0.591138L263.438 1.09081ZM264.842 1.07001L264.839 1.57L264.842 1.07001ZM268.355 1.16123L268.327 1.66047L268.355 1.16123ZM270.463 1.25236L270.472 0.752456L270.463 1.25236ZM271.867 1.27932L271.858 1.77923L271.867 1.27932ZM273.272 1.46835L273.151 1.95344L273.272 1.46835ZM274.678 1.81946L274.799 1.33438L274.678 1.81946ZM276.083 1.76461L276.238 2.23971L276.083 1.76461ZM277.487 1.30379L277.332 0.828689L277.487 1.30379ZM278.892 1.15741L278.833 1.65387L278.892 1.15741ZM280.298 1.32548L280.357 0.829021L280.298 1.32548ZM281.703 1.46935L281.745 0.971156L281.703 1.46935ZM283.107 1.58902L283.065 2.08722L283.107 1.58902ZM284.512 1.71997L284.462 2.21743L284.512 1.71997ZM285.918 1.8622L285.968 1.36474L285.918 1.8622ZM287.323 1.77355L287.433 2.26111L287.323 1.77355ZM288.025 1.6138L287.914 1.12625L288.025 1.6138ZM288.727 1.45404L288.617 0.96649L288.727 1.45404ZM290.132 1.40024L290.058 1.89465L290.132 1.40024ZM291.538 1.61215L291.612 1.11774L291.538 1.61215ZM292.943 1.65645L292.986 2.15453L292.943 1.65645ZM294.347 1.53312L294.304 1.03504L294.347 1.53312ZM295.752 1.40081L295.702 0.903318L295.752 1.40081ZM297.158 1.2595L297.208 1.75699L297.158 1.2595ZM298.562 1.3378L298.666 0.848677L298.562 1.3378ZM299.967 1.63571L299.864 2.12484L299.967 1.63571ZM301.372 1.70379L301.315 1.20707L301.372 1.70379ZM302.777 1.54202L302.835 2.03874L302.777 1.54202ZM304.182 1.46336L304.181 1.96335L304.182 1.46336ZM306.992 1.50179L307.015 1.0023L306.992 1.50179ZM308.397 1.56533L308.375 2.06482L308.397 1.56533ZM309.802 1.5731L309.785 1.07339L309.802 1.5731ZM311.207 1.52508L311.225 2.02479L311.207 1.52508ZM312.612 1.61178L312.69 1.11787L312.612 1.61178ZM314.017 1.83318L313.94 2.32709L314.017 1.83318ZM315.422 1.91541L315.402 1.41582L315.422 1.91541ZM316.827 1.85844L316.848 2.35803L316.827 1.85844ZM318.232 1.68352L318.335 2.173L318.232 1.68352ZM319.637 1.39064L319.535 0.901157L319.637 1.39064ZM321.042 1.18427L321 0.686083L321.042 1.18427ZM322.447 1.06443L322.49 1.56263L322.447 1.06443ZM325.257 0.986222L325.253 0.486241L325.257 0.986222ZM326.47 0.990179L326.48 0.490276L326.47 0.990179ZM326.98 1.00023L326.97 1.50014L326.98 1.00023ZM327.49 1.01029L327.48 1.51019L327.49 1.01029ZM328 1.26017L328.461 1.4526L328.5 1.36024V1.26017H328ZM327.9 1.5L327.439 1.30757L327.15 2H327.9V1.5ZM0 1.5V2H0.1V1.5V1H0V1.5ZM0.1 1.5L0.103461 1.99999L1.45846 1.99061L1.455 1.49062L1.45154 0.990631L0.0965385 1.00001L0.1 1.5ZM1.455 1.49062L1.45846 1.99061C2.35548 1.9844 3.01352 2.01262 3.44674 2.0701L3.5125 1.57444L3.57826 1.07879C3.07482 1.01199 2.36119 0.984334 1.45154 0.990631L1.455 1.49062ZM3.5125 1.57444L3.44674 2.0701L4.14924 2.1633L4.215 1.66765L4.28076 1.17199L3.57826 1.07879L3.5125 1.57444ZM4.215 1.66765L4.14924 2.1633L4.85174 2.25651L4.9175 1.76085L4.98326 1.2652L4.28076 1.17199L4.215 1.66765ZM4.9175 1.76085L4.85174 2.25651C5.37636 2.32611 5.90113 2.30652 6.4237 2.19852L6.3225 1.70887L6.2213 1.21922C5.80721 1.3048 5.39531 1.31987 4.98326 1.2652L4.9175 1.76085ZM6.3225 1.70887L6.4237 2.19852L7.1262 2.05333L7.025 1.56368L6.9238 1.07403L6.2213 1.21922L6.3225 1.70887ZM7.025 1.56368L7.1262 2.05333L7.8287 1.90815L7.7275 1.41849L7.6263 0.928841L6.9238 1.07403L7.025 1.56368ZM7.7275 1.41849L7.8287 1.90815C8.23219 1.82475 8.63352 1.82255 9.03658 1.90134L9.1325 1.41063L9.22842 0.919917C8.69482 0.815608 8.15948 0.818648 7.6263 0.928841L7.7275 1.41849ZM9.1325 1.41063L9.03658 1.90134L9.73908 2.03867L9.835 1.54795L9.93092 1.05724L9.22842 0.919917L9.1325 1.41063ZM9.835 1.54795L9.73908 2.03867L10.4416 2.17599L10.5375 1.68528L10.6334 1.19456L9.93092 1.05724L9.835 1.54795ZM10.5375 1.68528L10.4416 2.17599C10.9908 2.28334 11.5406 2.25516 12.0842 2.09453L11.9425 1.61502L11.8008 1.13552C11.4078 1.25166 11.0209 1.27031 10.6334 1.19456L10.5375 1.68528ZM11.9425 1.61502L12.0842 2.09453L12.7867 1.88695L12.645 1.40744L12.5033 0.927939L11.8008 1.13552L11.9425 1.61502ZM12.645 1.40744L12.7867 1.88695L13.4892 1.67937L13.3475 1.19987L13.2058 0.720361L12.5033 0.927939L12.645 1.40744ZM13.3475 1.19987L13.4892 1.67937C13.9026 1.55721 14.3112 1.51178 14.7176 1.5402L14.7525 1.04142L14.7874 0.542634C14.2571 0.505552 13.729 0.565753 13.2058 0.720361L13.3475 1.19987ZM14.7525 1.04142L14.7176 1.5402L15.4201 1.58933L15.455 1.09054L15.4899 0.591762L14.7874 0.542634L14.7525 1.04142ZM15.455 1.09054L15.4201 1.58933L16.1226 1.63845L16.1575 1.13967L16.1924 0.64089L15.4899 0.591762L15.455 1.09054ZM16.1575 1.13967L16.1226 1.63845C16.6012 1.67192 17.0798 1.69059 17.5585 1.69444L17.5625 1.19446L17.5665 0.694474C17.1085 0.690786 16.6505 0.672926 16.1924 0.64089L16.1575 1.13967ZM17.5625 1.19446L17.5585 1.69444L18.261 1.7001L18.265 1.20012L18.269 0.700132L17.5665 0.694474L17.5625 1.19446ZM18.265 1.20012L18.261 1.7001L18.9635 1.70576L18.9675 1.20577L18.9715 0.705791L18.269 0.700132L18.265 1.20012ZM18.9675 1.20577L18.9635 1.70576C19.4331 1.70954 19.9027 1.71151 20.3723 1.71165L20.3725 1.21165L20.3727 0.711653C19.9056 0.711506 19.4386 0.709552 18.9715 0.705791L18.9675 1.20577ZM20.3725 1.21165L20.3723 1.71165L21.0748 1.71187L21.075 1.21187L21.0752 0.711873L20.3727 0.711653L20.3725 1.21165ZM21.075 1.21187L21.0748 1.71187L21.7773 1.71209L21.7775 1.21209L21.7777 0.712093L21.0752 0.711873L21.075 1.21187ZM21.7775 1.21209L21.7773 1.71209C22.2497 1.71224 22.7221 1.70668 23.1944 1.69541L23.1825 1.19555L23.1706 0.695691C22.7063 0.706771 22.242 0.712239 21.7777 0.712093L21.7775 1.21209ZM23.1825 1.19555L23.1944 1.69541L23.8969 1.67864L23.885 1.17878L23.8731 0.678926L23.1706 0.695691L23.1825 1.19555ZM23.885 1.17878L23.8969 1.67864L24.5994 1.66188L24.5875 1.16202L24.5756 0.662161L23.8731 0.678926L23.885 1.17878ZM24.5875 1.16202L24.5994 1.66188C25.0529 1.65105 25.5064 1.6604 25.96 1.68992L25.9925 1.19098L26.025 0.692034C25.5419 0.660591 25.0587 0.650631 24.5756 0.662161L24.5875 1.16202ZM25.9925 1.19098L25.96 1.68992L26.6625 1.73565L26.695 1.2367L26.7275 0.737758L26.025 0.692034L25.9925 1.19098ZM26.695 1.2367L26.6625 1.73565L27.365 1.78137L27.3975 1.28243L27.43 0.783482L26.7275 0.737758L26.695 1.2367ZM27.3975 1.28243L27.365 1.78137C27.8595 1.81356 28.3541 1.80681 28.8485 1.76117L28.8025 1.26329L28.7565 0.765405C28.3142 0.806244 27.8721 0.81226 27.43 0.783482L27.3975 1.28243ZM28.8025 1.26329L28.8485 1.76117L29.551 1.69631L29.505 1.19842L29.459 0.700542L28.7565 0.765405L28.8025 1.26329ZM29.505 1.19842L29.551 1.69631L30.2535 1.63144L30.2075 1.13356L30.1615 0.635679L29.459 0.700542L29.505 1.19842ZM30.2075 1.13356L30.2535 1.63144C30.652 1.59464 31.0531 1.63921 31.4605 1.76924L31.6125 1.29292L31.7645 0.816589C31.2353 0.64766 30.6997 0.585993 30.1615 0.635679L30.2075 1.13356ZM31.6125 1.29292L31.4605 1.76924L32.163 1.99346L32.315 1.51713L32.467 1.04081L31.7645 0.816589L31.6125 1.29292ZM32.315 1.51713L32.163 1.99346L32.8655 2.21768L33.0175 1.74135L33.1695 1.26503L32.467 1.04081L32.315 1.51713ZM33.0175 1.74135L32.8655 2.21768C33.4366 2.39997 34.0148 2.39334 34.5838 2.19935L34.4225 1.72609L34.2612 1.25284C33.8936 1.37815 33.5351 1.38169 33.1695 1.26503L33.0175 1.74135ZM34.4225 1.72609L34.5838 2.19935L35.2863 1.95988L35.125 1.48662L34.9637 1.01336L34.2612 1.25284L34.4225 1.72609ZM35.125 1.48662L35.2863 1.95988L35.9888 1.7204L35.8275 1.24715L35.6662 0.773887L34.9637 1.01336L35.125 1.48662ZM35.8275 1.24715L35.9888 1.7204C36.4057 1.57829 36.8168 1.5124 37.2244 1.51903L37.2325 1.0191L37.2406 0.519166C36.7115 0.510557 36.1859 0.596706 35.6662 0.773887L35.8275 1.24715ZM37.2325 1.0191L37.2244 1.51903L37.9269 1.53046L37.935 1.03053L37.9431 0.530595L37.2406 0.519166L37.2325 1.0191ZM37.935 1.03053L37.9269 1.53046L38.6294 1.54189L38.6375 1.04196L38.6456 0.542024L37.9431 0.530595L37.935 1.03053ZM38.6375 1.04196L38.6294 1.54189C39.1022 1.54958 39.5751 1.55085 40.048 1.54568L40.0425 1.04571L40.037 0.545738C39.5732 0.550808 39.1094 0.549569 38.6456 0.542024L38.6375 1.04196ZM40.0425 1.04571L40.048 1.54568L40.7505 1.538L40.745 1.03803L40.7395 0.53806L40.037 0.545738L40.0425 1.04571ZM40.745 1.03803L40.7505 1.538L41.453 1.53032L41.4475 1.03035L41.442 0.530382L40.7395 0.53806L40.745 1.03803ZM41.4475 1.03035L41.453 1.53032C41.9114 1.52531 42.3699 1.5339 42.8283 1.55608L42.8525 1.05667L42.8767 0.557253C42.3985 0.534113 41.9203 0.525156 41.442 0.530382L41.4475 1.03035ZM42.8525 1.05667L42.8283 1.55608L43.5308 1.59008L43.555 1.09066L43.5792 0.591247L42.8767 0.557253L42.8525 1.05667ZM43.555 1.09066L43.5308 1.59008L44.2333 1.62407L44.2575 1.12466L44.2817 0.625241L43.5792 0.591247L43.555 1.09066ZM44.2575 1.12466L44.2333 1.62407C44.7083 1.64706 45.1833 1.66051 45.6584 1.66443L45.6625 1.16445L45.6666 0.664467C45.205 0.660656 44.7433 0.647581 44.2817 0.625241L44.2575 1.12466ZM45.6625 1.16445L45.6584 1.66443L46.3609 1.67023L46.365 1.17025L46.3691 0.670267L45.6666 0.664467L45.6625 1.16445ZM46.365 1.17025L46.3609 1.67023L47.0634 1.67603L47.0675 1.17605L47.0716 0.676066L46.3691 0.670267L46.365 1.17025ZM47.0675 1.17605L47.0634 1.67603C47.5181 1.67979 47.9729 1.70208 48.4278 1.74293L48.4725 1.24493L48.5172 0.746935C48.0354 0.703672 47.5536 0.680044 47.0716 0.676066L47.0675 1.17605ZM48.4725 1.24493L48.4278 1.74293L49.1303 1.80601L49.175 1.30801L49.2197 0.810018L48.5172 0.746935L48.4725 1.24493ZM49.175 1.30801L49.1303 1.80601L49.8328 1.86909L49.8775 1.3711L49.9222 0.873101L49.2197 0.810018L49.175 1.30801ZM49.8775 1.3711L49.8328 1.86909C50.3143 1.91234 50.7959 1.9363 51.2776 1.94097L51.2825 1.441L51.2873 0.94102C50.8324 0.936606 50.3773 0.913971 49.9222 0.873101L49.8775 1.3711ZM51.2825 1.441L51.2776 1.94097L51.9801 1.94779L51.985 1.44781L51.9898 0.947835L51.2873 0.94102L51.2825 1.441ZM51.985 1.44781L51.9801 1.94779L52.6826 1.9546L52.6875 1.45463L52.6923 0.954651L51.9898 0.947835L51.985 1.44781ZM52.6875 1.45463L52.6826 1.9546C53.1651 1.95928 53.6475 1.94359 54.1298 1.90753L54.0925 1.40893L54.0552 0.910317C53.6009 0.944283 53.1466 0.959058 52.6923 0.954651L52.6875 1.45463ZM54.0925 1.40893L54.1298 1.90753L54.8323 1.85502L54.795 1.35641L54.7577 0.857799L54.0552 0.910317L54.0925 1.40893ZM54.795 1.35641L54.8323 1.85502L55.5348 1.8025L55.4975 1.30389L55.4602 0.805282L54.7577 0.857799L54.795 1.35641ZM55.4975 1.30389L55.5348 1.8025C55.9493 1.77151 56.365 1.80648 56.7837 1.90889L56.9025 1.42321L57.0213 0.93753C56.5033 0.810827 55.9823 0.76625 55.4602 0.805282L55.4975 1.30389ZM56.9025 1.42321L56.7837 1.90889L57.4862 2.08073L57.605 1.59505L57.7238 1.10937L57.0213 0.93753L56.9025 1.42321ZM57.605 1.59505L57.4862 2.08073L58.1887 2.25257L58.3075 1.76689L58.4263 1.28121L57.7238 1.10937L57.605 1.59505ZM58.3075 1.76689L58.1887 2.25257C58.7024 2.37823 59.2188 2.42925 59.7365 2.40432L59.7125 1.9049L59.6884 1.40547C59.2695 1.42565 58.8493 1.38466 58.4263 1.28121L58.3075 1.76689ZM59.7125 1.9049L59.7365 2.40432L60.439 2.37049L60.415 1.87107L60.3909 1.37165L59.6884 1.40547L59.7125 1.9049ZM60.415 1.87107L60.439 2.37049L61.1415 2.33666L61.1175 1.83724L61.0934 1.33782L60.3909 1.37165L60.415 1.87107ZM61.1175 1.83724L61.1415 2.33666C61.6063 2.31428 62.071 2.29692 62.5358 2.28459L62.5225 1.78476L62.5092 1.28494C62.0373 1.29747 61.5654 1.31509 61.0934 1.33782L61.1175 1.83724ZM62.5225 1.78476L62.5358 2.28459L63.2383 2.26594L63.225 1.76612L63.2117 1.26629L62.5092 1.28494L62.5225 1.78476ZM63.225 1.76612L63.2383 2.26594L63.9408 2.2473L63.9275 1.74747L63.9142 1.24765L63.2117 1.26629L63.225 1.76612ZM63.9275 1.74747L63.9408 2.2473C64.4295 2.23432 64.918 2.19146 65.4061 2.11878L65.3325 1.62424L65.2589 1.12969C64.8103 1.19647 64.3621 1.23576 63.9142 1.24765L63.9275 1.74747ZM65.3325 1.62424L65.4061 2.11878L66.1086 2.01419L66.035 1.51965L65.9614 1.0251L65.2589 1.12969L65.3325 1.62424ZM66.035 1.51965L66.1086 2.01419L66.8111 1.9096L66.7375 1.41505L66.6639 0.920506L65.9614 1.0251L66.035 1.51965ZM66.7375 1.41505L66.8111 1.9096C67.2441 1.84515 67.6762 1.82788 68.1082 1.85757L68.1425 1.35874L68.1768 0.859921C67.6721 0.825237 67.1676 0.845509 66.6639 0.920506L66.7375 1.41505ZM68.1425 1.35874L68.1082 1.85757L68.8107 1.90585L68.845 1.40702L68.8793 0.908201L68.1768 0.859921L68.1425 1.35874ZM68.845 1.40702L68.8107 1.90585L69.5132 1.95413L69.5475 1.4553L69.5818 0.956481L68.8793 0.908201L68.845 1.40702ZM69.5475 1.4553L69.5132 1.95413C69.9842 1.98649 70.4551 2.01513 70.9261 2.04005L70.9525 1.54075L70.9789 1.04145C70.5132 1.01681 70.0475 0.988487 69.5818 0.956481L69.5475 1.4553ZM70.9525 1.54075L70.9261 2.04005L71.6286 2.07721L71.655 1.57791L71.6814 1.07861L70.9789 1.04145L70.9525 1.54075ZM71.655 1.57791L71.6286 2.07721L72.3311 2.11438L72.3575 1.61508L72.3839 1.11577L71.6814 1.07861L71.655 1.57791ZM72.3575 1.61508L72.3311 2.11438C72.801 2.13924 73.2709 2.16185 73.7409 2.1822L73.7625 1.68267L73.7841 1.18314C73.3174 1.16292 72.8507 1.14047 72.3839 1.11577L72.3575 1.61508ZM73.7625 1.68267L73.7409 2.1822L74.4434 2.21263L74.465 1.71309L74.4866 1.21356L73.7841 1.18314L73.7625 1.68267ZM74.465 1.71309L74.4434 2.21263L75.1459 2.24305L75.1675 1.74352L75.1891 1.24399L74.4866 1.21356L74.465 1.71309ZM75.1675 1.74352L75.1459 2.24305C75.6312 2.26407 76.1165 2.26032 76.6018 2.2318L76.5725 1.73266L76.5432 1.23352C76.0918 1.26005 75.6405 1.26354 75.1891 1.24399L75.1675 1.74352ZM76.5725 1.73266L76.6018 2.2318L77.3043 2.19051L77.275 1.69137L77.2457 1.19224L76.5432 1.23352L76.5725 1.73266ZM77.275 1.69137L77.3043 2.19051L78.0068 2.14923L77.9775 1.65009L77.9482 1.15095L77.2457 1.19224L77.275 1.69137ZM77.9775 1.65009L78.0068 2.14923C78.4956 2.1205 78.984 2.06175 79.4719 1.97311L79.3825 1.48116L79.2931 0.989216C78.8443 1.07075 78.3961 1.12462 77.9482 1.15095L77.9775 1.65009ZM79.3825 1.48116L79.4719 1.97311L80.1744 1.84547L80.085 1.35352L79.9956 0.861578L79.2931 0.989216L79.3825 1.48116ZM80.085 1.35352L80.1744 1.84547L80.8769 1.71783L80.7875 1.22589L80.6981 0.733939L79.9956 0.861578L80.085 1.35352ZM80.7875 1.22589L80.8769 1.71783C81.2667 1.647 81.6564 1.66793 82.052 1.78375L82.1925 1.30389L82.333 0.824023C81.7919 0.665652 81.2449 0.634587 80.6981 0.733939L80.7875 1.22589ZM82.1925 1.30389L82.052 1.78375L82.7545 1.98939L82.895 1.50953L83.0355 1.02966L82.333 0.824023L82.1925 1.30389ZM82.895 1.50953L82.7545 1.98939L83.457 2.19503L83.5975 1.71517L83.738 1.2353L83.0355 1.02966L82.895 1.50953ZM83.5975 1.71517L83.457 2.19503C83.9924 2.35174 84.5335 2.39179 85.0754 2.31192L85.0025 1.81726L84.9296 1.32261C84.5348 1.38079 84.1393 1.35277 83.738 1.2353L83.5975 1.71517ZM85.0025 1.81726L85.0754 2.31192L85.7779 2.20837L85.705 1.71372L85.6321 1.21906L84.9296 1.32261L85.0025 1.81726ZM85.705 1.71372L85.7779 2.20837L86.4804 2.10483L86.4075 1.61017L86.3346 1.11552L85.6321 1.21906L85.705 1.71372ZM86.4075 1.61017L86.4804 2.10483C86.9277 2.03891 87.3745 2.00215 87.8211 1.99447L87.8125 1.49455L87.8039 0.994623C87.3138 1.00305 86.824 1.04338 86.3346 1.11552L86.4075 1.61017ZM87.8125 1.49455L87.8211 1.99447L88.5236 1.98239L88.515 1.48247L88.5064 0.982541L87.8039 0.994623L87.8125 1.49455ZM88.515 1.48247L88.5236 1.98239L89.2261 1.97031L89.2175 1.47039L89.2089 0.970459L88.5064 0.982541L88.515 1.48247ZM89.2175 1.47039L89.2261 1.97031C89.7138 1.96192 90.2013 1.92529 90.6884 1.86047L90.6225 1.36484L90.5566 0.869205C90.1071 0.929008 89.6579 0.962738 89.2089 0.970459L89.2175 1.47039ZM90.6225 1.36484L90.6884 1.86047L91.3909 1.767L91.325 1.27137L91.2591 0.775739L90.5566 0.869205L90.6225 1.36484ZM91.325 1.27137L91.3909 1.767L92.0934 1.67354L92.0275 1.17791L91.9616 0.682273L91.2591 0.775739L91.325 1.27137ZM92.0275 1.17791L92.0934 1.67354C92.5339 1.61494 92.9738 1.59403 93.4136 1.61067L93.4325 1.11103L93.4514 0.611388C92.9545 0.592579 92.4578 0.616251 91.9616 0.682273L92.0275 1.17791ZM93.4325 1.11103L93.4136 1.61067L94.1161 1.63726L94.135 1.13762L94.1539 0.637978L93.4514 0.611388L93.4325 1.11103ZM94.135 1.13762L94.1161 1.63726L94.8186 1.66385L94.8375 1.16421L94.8564 0.664569L94.1539 0.637978L94.135 1.13762ZM94.8375 1.16421L94.8186 1.66385C95.2886 1.68164 95.7585 1.69713 96.2285 1.7103L96.2425 1.2105L96.2565 0.710695C95.7898 0.697609 95.3231 0.682234 94.8564 0.664569L94.8375 1.16421ZM96.2425 1.2105L96.2285 1.7103L96.931 1.73L96.945 1.2302L96.959 0.730392L96.2565 0.710695L96.2425 1.2105ZM96.945 1.2302L96.931 1.73L97.6335 1.7497L97.6475 1.24989L97.6615 0.750089L96.959 0.730392L96.945 1.2302ZM97.6475 1.24989L97.6335 1.7497C98.0694 1.76192 98.5061 1.81636 98.9442 1.91352L99.0525 1.42538L99.1607 0.937237C98.6622 0.826674 98.1623 0.764131 97.6615 0.750089L97.6475 1.24989ZM99.0525 1.42538L98.9442 1.91352L99.6467 2.06931L99.755 1.58117L99.8632 1.09302L99.1607 0.937237L99.0525 1.42538ZM99.755 1.58117L99.6467 2.06931L100.349 2.22509L100.457 1.73695L100.566 1.24881L99.8632 1.09302L99.755 1.58117ZM100.457 1.73695L100.349 2.22509C100.85 2.33607 101.352 2.39592 101.854 2.40409L101.862 1.90415L101.871 1.40422C101.437 1.39717 101.002 1.34555 100.566 1.24881L100.457 1.73695ZM101.862 1.90415L101.854 2.40409L102.557 2.4155L102.565 1.91556L102.573 1.41563L101.871 1.40422L101.862 1.90415ZM102.565 1.91556L102.557 2.4155L103.259 2.42691L103.267 1.92697L103.276 1.42704L102.573 1.41563L102.565 1.91556ZM103.267 1.92697L103.259 2.42691C103.742 2.43475 104.225 2.42132 104.708 2.38663L104.673 1.88791L104.637 1.3892C104.183 1.4218 103.729 1.43441 103.276 1.42704L103.267 1.92697ZM104.673 1.88791L104.708 2.38663L105.411 2.33616L105.375 1.83744L105.339 1.33873L104.637 1.3892L104.673 1.88791ZM105.375 1.83744L105.411 2.33616L106.113 2.28569L106.077 1.78697L106.042 1.28826L105.339 1.33873L105.375 1.83744ZM106.077 1.78697L106.113 2.28569C106.586 2.25173 107.059 2.2116 107.531 2.1653L107.482 1.66768L107.434 1.17006C106.97 1.21552 106.506 1.25492 106.042 1.28826L106.077 1.78697ZM107.482 1.66768L107.531 2.1653L108.234 2.09647L108.185 1.59886L108.136 1.10124L107.434 1.17006L107.482 1.66768ZM108.185 1.59886L108.234 2.09647L108.936 2.02765L108.887 1.53004L108.839 1.03242L108.136 1.10124L108.185 1.59886ZM108.887 1.53004L108.936 2.02765C109.403 1.98191 109.87 1.93813 110.337 1.89631L110.292 1.3983L110.248 0.900293C109.778 0.94236 109.308 0.986402 108.839 1.03242L108.887 1.53004ZM110.292 1.3983L110.337 1.89631L111.04 1.83339L110.995 1.33539L110.95 0.837379L110.248 0.900293L110.292 1.3983ZM110.995 1.33539L111.04 1.83339L111.742 1.77048L111.697 1.27247L111.653 0.774465L110.95 0.837379L110.995 1.33539ZM111.697 1.27247L111.742 1.77048C112.156 1.73339 112.571 1.76297 112.989 1.8605L113.102 1.3736L113.216 0.886702C112.697 0.765513 112.175 0.727665 111.653 0.774465L111.697 1.27247ZM113.102 1.3736L112.989 1.8605L113.691 2.02455L113.805 1.53765L113.919 1.05075L113.216 0.886702L113.102 1.3736ZM113.805 1.53765L113.691 2.02455L114.394 2.18859L114.507 1.70169L114.621 1.21479L113.919 1.05075L113.805 1.53765ZM114.507 1.70169L114.394 2.18859C114.909 2.3088 115.426 2.35302 115.944 2.32005L115.912 1.82106L115.881 1.32206C115.462 1.34867 115.043 1.31331 114.621 1.21479L114.507 1.70169ZM115.912 1.82106L115.944 2.32005L116.647 2.27536L116.615 1.77637L116.583 1.27738L115.881 1.32206L115.912 1.82106ZM116.615 1.77637L116.647 2.27536L117.349 2.23068L117.317 1.73169L117.286 1.2327L116.583 1.27738L116.615 1.77637ZM117.317 1.73169L117.349 2.23068C117.827 2.20027 118.305 2.15586 118.783 2.09745L118.722 1.60115L118.662 1.10484C118.203 1.16091 117.744 1.20352 117.286 1.2327L117.317 1.73169ZM118.722 1.60115L118.783 2.09745L119.486 2.0116L119.425 1.51529L119.364 1.01898L118.662 1.10484L118.722 1.60115ZM119.425 1.51529L119.486 2.0116L120.188 1.92574L120.127 1.42943L120.067 0.933124L119.364 1.01898L119.425 1.51529ZM120.127 1.42943L120.188 1.92574C120.656 1.86852 121.125 1.81152 121.593 1.75475L121.532 1.25839L121.472 0.762024C121.004 0.818833 120.535 0.875866 120.067 0.933124L120.127 1.42943ZM121.532 1.25839L121.593 1.75475L122.295 1.66957L122.235 1.1732L122.175 0.676838L121.472 0.762024L121.532 1.25839ZM122.235 1.1732L122.295 1.66957L122.998 1.58438L122.938 1.08802L122.877 0.591653L122.175 0.676838L122.235 1.1732ZM122.938 1.08802L122.998 1.58438C123.444 1.53025 123.89 1.5061 124.336 1.51185L124.342 1.01189L124.349 0.511933C123.858 0.505603 123.368 0.532201 122.877 0.591653L122.938 1.08802ZM124.342 1.01189L124.336 1.51185L125.039 1.52091L125.045 1.02095L125.051 0.520993L124.349 0.511933L124.342 1.01189ZM125.045 1.02095L125.039 1.52091L125.741 1.52997L125.747 1.03001L125.754 0.530054L125.051 0.520993L125.045 1.02095ZM125.747 1.03001L125.741 1.52997C126.187 1.53573 126.634 1.57089 127.081 1.63555L127.152 1.1407L127.224 0.645854C126.734 0.575011 126.244 0.536378 125.754 0.530054L125.747 1.03001ZM127.152 1.1407L127.081 1.63555L127.783 1.73718L127.855 1.24233L127.927 0.747484L127.224 0.645854L127.152 1.1407ZM127.855 1.24233L127.783 1.73718L128.486 1.83881L128.557 1.34396L128.629 0.849114L127.927 0.747484L127.855 1.24233ZM128.557 1.34396L128.486 1.83881C128.993 1.91217 129.501 1.92541 130.009 1.87835L129.962 1.38048L129.916 0.882617C129.487 0.922365 129.059 0.911261 128.629 0.849114L128.557 1.34396ZM129.962 1.38048L130.009 1.87835L130.711 1.81324L130.665 1.31537L130.619 0.817508L129.916 0.882617L129.962 1.38048ZM130.665 1.31537L130.711 1.81324L131.414 1.74813L131.367 1.25027L131.321 0.752399L130.619 0.817508L130.665 1.31537ZM131.367 1.25027L131.414 1.74813C131.874 1.70542 132.335 1.67325 132.796 1.6516L132.772 1.15215L132.749 0.652704C132.273 0.675063 131.797 0.708295 131.321 0.752399L131.367 1.25027ZM132.772 1.15215L132.796 1.6516L133.498 1.6186L133.475 1.11915L133.452 0.619702L132.749 0.652704L132.772 1.15215ZM133.475 1.11915L133.498 1.6186L134.201 1.5856L134.178 1.08615L134.154 0.586699L133.452 0.619702L133.475 1.11915ZM134.178 1.08615L134.201 1.5856C134.605 1.5666 135.013 1.62304 135.427 1.75874L135.583 1.28366L135.738 0.808579C135.215 0.636923 134.686 0.561698 134.154 0.586699L134.178 1.08615ZM135.583 1.28366L135.427 1.75874L136.129 1.98925L136.285 1.51417L136.441 1.03909L135.738 0.808579L135.583 1.28366ZM136.285 1.51417L136.129 1.98925L136.832 2.21976L136.988 1.74468L137.143 1.2696L136.441 1.03909L136.285 1.51417ZM136.988 1.74468L136.832 2.21976C137.371 2.39672 137.918 2.44664 138.467 2.3645L138.393 1.87001L138.318 1.37552C137.93 1.43362 137.541 1.39999 137.143 1.2696L136.988 1.74468ZM138.393 1.87001L138.467 2.3645L139.169 2.25932L139.095 1.76483L139.021 1.27034L138.318 1.37552L138.393 1.87001ZM139.095 1.76483L139.169 2.25932L139.872 2.15414L139.798 1.65965L139.723 1.16516L139.021 1.27034L139.095 1.76483ZM139.798 1.65965L139.872 2.15414C140.339 2.0842 140.806 2.0161 141.273 1.94981L141.202 1.45477L141.132 0.959732C140.663 1.02637 140.193 1.09485 139.723 1.16516L139.798 1.65965ZM141.202 1.45477L141.273 1.94981L141.975 1.85012L141.905 1.35508L141.835 0.860037L141.132 0.959732L141.202 1.45477ZM141.905 1.35508L141.975 1.85012L142.678 1.75042L142.607 1.25538L142.537 0.760342L141.835 0.860037L141.905 1.35508ZM142.607 1.25538L142.678 1.75042C143.103 1.69013 143.527 1.68623 143.951 1.73863L144.012 1.2424L144.074 0.746167C143.562 0.682951 143.049 0.687708 142.537 0.760342L142.607 1.25538ZM144.012 1.2424L143.951 1.73863L144.654 1.82535L144.715 1.32911L144.776 0.83288L144.074 0.746167L144.012 1.2424ZM144.715 1.32911L144.654 1.82535L145.356 1.91206L145.417 1.41583L145.479 0.919594L144.776 0.83288L144.715 1.32911ZM145.417 1.41583L145.356 1.91206C145.867 1.97512 146.378 1.97233 146.889 1.90376L146.822 1.4082L146.756 0.912652C146.33 0.969858 145.905 0.972155 145.479 0.919594L145.417 1.41583ZM146.822 1.4082L146.889 1.90376L147.592 1.80942L147.525 1.31387L147.458 0.818315L146.756 0.912652L146.822 1.4082ZM147.525 1.31387L147.592 1.80942L148.294 1.71508L148.227 1.21953L148.161 0.723977L147.458 0.818315L147.525 1.31387ZM148.227 1.21953L148.294 1.71508C148.746 1.65435 149.198 1.61599 149.65 1.59997L149.632 1.10029L149.615 0.600601C149.13 0.617788 148.645 0.658929 148.161 0.723977L148.227 1.21953ZM149.632 1.10029L149.65 1.59997L150.353 1.57507L150.335 1.07538L150.317 0.575696L149.615 0.600601L149.632 1.10029ZM150.335 1.07538L150.353 1.57507L151.055 1.55016L151.037 1.05048L151.02 0.55079L150.317 0.575696L150.335 1.07538ZM151.037 1.05048L151.055 1.55016C151.496 1.53454 151.936 1.55551 152.378 1.61317L152.442 1.11739L152.507 0.621602C152.012 0.556846 151.516 0.533202 151.02 0.55079L151.037 1.05048ZM152.442 1.11739L152.378 1.61317L153.08 1.70498L153.145 1.2092L153.21 0.713417L152.507 0.621602L152.442 1.11739ZM153.145 1.2092L153.08 1.70498L153.783 1.7968L153.848 1.30101L153.912 0.805231L153.21 0.713417L153.145 1.2092ZM153.848 1.30101L153.783 1.7968C154.257 1.85883 154.732 1.91164 155.207 1.95521L155.253 1.4573L155.298 0.959395C154.836 0.917001 154.374 0.865614 153.912 0.805231L153.848 1.30101ZM155.253 1.4573L155.207 1.95521L155.909 2.01968L155.955 1.52178L156.001 1.02387L155.298 0.959395L155.253 1.4573ZM155.955 1.52178L155.909 2.01968L156.612 2.08416L156.658 1.58625L156.703 1.08834L156.001 1.02387L155.955 1.52178ZM156.658 1.58625L156.612 2.08416C157.094 2.1284 157.576 2.15252 158.058 2.15648L158.062 1.6565L158.067 1.15652C157.612 1.15278 157.158 1.13006 156.703 1.08834L156.658 1.58625ZM158.062 1.6565L158.058 2.15648L158.761 2.16226L158.765 1.66228L158.769 1.1623L158.067 1.15652L158.062 1.6565ZM158.765 1.66228L158.761 2.16226L159.463 2.16804L159.467 1.66806L159.472 1.16808L158.769 1.1623L158.765 1.66228ZM159.467 1.66806L159.463 2.16804C159.917 2.17177 160.371 2.19553 160.824 2.23934L160.872 1.74165L160.921 1.24397C160.438 1.19735 159.955 1.17205 159.472 1.16808L159.467 1.66806ZM160.872 1.74165L160.824 2.23934L161.527 2.30716L161.575 1.80947L161.623 1.31179L160.921 1.24397L160.872 1.74165ZM161.575 1.80947L161.527 2.30716L162.229 2.37498L162.277 1.87729L162.326 1.3796L161.623 1.31179L161.575 1.80947ZM162.277 1.87729L162.229 2.37498C162.729 2.42318 163.228 2.42466 163.728 2.37942L163.682 1.88146L163.637 1.3835C163.2 1.42312 162.763 1.42183 162.326 1.3796L162.277 1.87729ZM163.682 1.88146L163.728 2.37942L164.43 2.31577L164.385 1.81781L164.34 1.31984L163.637 1.3835L163.682 1.88146ZM164.385 1.81781L164.43 2.31577L165.133 2.25211L165.087 1.75415L165.042 1.25619L164.34 1.31984L164.385 1.81781ZM165.087 1.75415L165.133 2.25211C165.607 2.2091 166.082 2.15684 166.557 2.09534L166.492 1.59949L166.428 1.10363C165.966 1.16349 165.504 1.21434 165.042 1.25619L165.087 1.75415ZM166.492 1.59949L166.557 2.09534L167.259 2.00433L167.195 1.50847L167.131 1.01262L166.428 1.10363L166.492 1.59949ZM167.195 1.50847L167.259 2.00433L167.962 1.91331L167.897 1.41746L167.833 0.9216L167.131 1.01262L167.195 1.50847ZM167.897 1.41746L167.962 1.91331C168.378 1.8594 168.794 1.87102 169.211 1.94866L169.302 1.45709L169.394 0.965514C168.875 0.868952 168.354 0.854153 167.833 0.9216L167.897 1.41746ZM169.302 1.45709L169.211 1.94866L169.914 2.0793L170.005 1.58773L170.096 1.09616L169.394 0.965514L169.302 1.45709ZM170.005 1.58773L169.914 2.0793L170.616 2.20995L170.708 1.71838L170.799 1.22681L170.096 1.09616L170.005 1.58773ZM170.708 1.71838L170.616 2.20995C171.15 2.30916 171.684 2.30174 172.217 2.18818L172.113 1.69918L172.008 1.21018C171.604 1.29641 171.202 1.30179 170.799 1.22681L170.708 1.71838ZM172.113 1.69918L172.217 2.18818L172.919 2.03833L172.815 1.54933L172.711 1.06033L172.008 1.21018L172.113 1.69918ZM172.815 1.54933L172.919 2.03833L173.622 1.88848L173.518 1.39948L173.413 0.910484L172.711 1.06033L172.815 1.54933ZM173.518 1.39948L173.622 1.88848C174.048 1.79751 174.473 1.76344 174.897 1.78544L174.923 1.28612L174.948 0.78679C174.436 0.760154 173.923 0.801657 173.413 0.910484L173.518 1.39948ZM174.923 1.28612L174.897 1.78544L175.599 1.82193L175.625 1.3226L175.651 0.823271L174.948 0.78679L174.923 1.28612ZM175.625 1.3226L175.599 1.82193L176.302 1.85841L176.327 1.35908L176.353 0.859751L175.651 0.823271L175.625 1.3226ZM176.327 1.35908L176.302 1.85841C176.757 1.88206 177.213 1.92328 177.669 1.9821L177.732 1.48621L177.796 0.990323C177.316 0.928269 176.835 0.884737 176.353 0.859751L176.327 1.35908ZM177.732 1.48621L177.669 1.9821L178.371 2.07275L178.435 1.57686L178.499 1.08098L177.796 0.990323L177.732 1.48621ZM178.435 1.57686L178.371 2.07275L179.074 2.1634L179.137 1.66752L179.201 1.17163L178.499 1.08098L178.435 1.57686ZM179.137 1.66752L179.074 2.1634C179.549 2.2248 180.025 2.27529 180.501 2.31486L180.542 1.81658L180.584 1.3183C180.123 1.27999 179.662 1.2311 179.201 1.17163L179.137 1.66752ZM180.542 1.81658L180.501 2.31486L181.204 2.37328L181.245 1.87499L181.286 1.37671L180.584 1.3183L180.542 1.81658ZM181.245 1.87499L181.204 2.37328L181.906 2.43169L181.947 1.93341L181.989 1.43513L181.286 1.37671L181.245 1.87499ZM181.947 1.93341L181.906 2.43169C182.433 2.4755 182.959 2.42744 183.48 2.28952L183.352 1.80613L183.225 1.32273C182.81 1.43241 182.399 1.4692 181.989 1.43513L181.947 1.93341ZM183.352 1.80613L183.48 2.28952L184.183 2.10383L184.055 1.62043L183.927 1.13703L183.225 1.32273L183.352 1.80613ZM184.055 1.62043L184.183 2.10383L184.885 1.91813L184.757 1.43473L184.63 0.951337L183.927 1.13703L184.055 1.62043ZM184.757 1.43473L184.885 1.91813C185.328 1.80112 185.769 1.72199 186.21 1.68031L186.162 1.18253L186.115 0.684758C185.619 0.731748 185.124 0.820756 184.63 0.951337L184.757 1.43473ZM186.162 1.18253L186.21 1.68031L186.912 1.6138L186.865 1.11603L186.818 0.618253L186.115 0.684758L186.162 1.18253ZM186.865 1.11603L186.912 1.6138L187.615 1.5473L187.567 1.04952L187.52 0.551747L186.818 0.618253L186.865 1.11603ZM187.567 1.04952L187.615 1.5473C188.005 1.51038 188.398 1.56203 188.801 1.70886L188.972 1.23909L189.144 0.769331C188.61 0.57472 188.067 0.499993 187.52 0.551747L187.567 1.04952ZM188.972 1.23909L188.801 1.70886L189.504 1.96493L189.675 1.49517L189.846 1.02541L189.144 0.769331L188.972 1.23909ZM189.675 1.49517L189.504 1.96493L190.206 2.22101L190.377 1.75125L190.549 1.28149L189.846 1.02541L189.675 1.49517ZM190.377 1.75125L190.206 2.22101C190.729 2.41164 191.259 2.50346 191.794 2.49155L191.783 1.99167L191.771 1.49179C191.369 1.50076 190.962 1.4323 190.549 1.28149L190.377 1.75125ZM191.783 1.99167L191.794 2.49155L192.496 2.47589L192.485 1.97601L192.474 1.47614L191.771 1.49179L191.783 1.99167ZM192.485 1.97601L192.496 2.47589L193.199 2.46023L193.188 1.96036L193.176 1.46048L192.474 1.47614L192.485 1.97601ZM193.188 1.96036L193.199 2.46023C193.699 2.44908 194.198 2.39031 194.697 2.28436L194.592 1.7953L194.488 1.30624C194.05 1.39948 193.613 1.45075 193.176 1.46048L193.188 1.96036ZM194.592 1.7953L194.697 2.28436L195.399 2.13496L195.295 1.6459L195.191 1.15684L194.488 1.30624L194.592 1.7953ZM195.295 1.6459L195.399 2.13496L196.102 1.98556L195.997 1.4965L195.893 1.00744L195.191 1.15684L195.295 1.6459ZM195.997 1.4965L196.102 1.98556C196.528 1.89488 196.952 1.86111 197.376 1.88345L197.402 1.38415L197.429 0.884842C196.916 0.85779 196.404 0.898925 195.893 1.00744L195.997 1.4965ZM197.402 1.38415L197.376 1.88345L198.079 1.9205L198.105 1.4212L198.131 0.921889L197.429 0.884842L197.402 1.38415ZM198.105 1.4212L198.079 1.9205L198.781 1.95755L198.807 1.45824L198.834 0.958936L198.131 0.921889L198.105 1.4212ZM198.807 1.45824L198.781 1.95755C199.248 1.98215 199.714 2.00922 200.181 2.03875L200.212 1.53975L200.244 1.04074C199.774 1.011 199.304 0.983727 198.834 0.958936L198.807 1.45824ZM200.212 1.53975L200.181 2.03875L200.883 2.0832L200.915 1.5842L200.947 1.0852L200.244 1.04074L200.212 1.53975ZM200.915 1.5842L200.883 2.0832L201.586 2.12766L201.617 1.62866L201.649 1.12966L200.947 1.0852L200.915 1.5842ZM201.617 1.62866L201.586 2.12766C202.086 2.1593 202.586 2.14344 203.085 2.08019L203.022 1.58416L202.96 1.08812C202.522 1.14348 202.086 1.15729 201.649 1.12966L201.617 1.62866ZM203.022 1.58416L203.085 2.08019L203.788 1.99124L203.725 1.4952L203.662 0.99916L202.96 1.08812L203.022 1.58416ZM203.725 1.4952L203.788 1.99124L204.49 1.90228L204.427 1.40624L204.365 0.910203L203.662 0.99916L203.725 1.4952ZM204.427 1.40624L204.49 1.90228C204.928 1.84691 205.364 1.83304 205.801 1.86054L205.832 1.36153L205.864 0.862519C205.364 0.831031 204.864 0.846966 204.365 0.910203L204.427 1.40624ZM205.832 1.36153L205.801 1.86054L206.504 1.90479L206.535 1.40577L206.566 0.906764L205.864 0.862519L205.832 1.36153ZM206.535 1.40577L206.504 1.90479L207.206 1.94903L207.237 1.45002L207.269 0.951008L206.566 0.906764L206.535 1.40577ZM207.237 1.45002L207.206 1.94903C207.654 1.97727 208.103 2.03244 208.552 2.11466L208.643 1.62283L208.733 1.131C208.245 1.04179 207.757 0.981761 207.269 0.951008L207.237 1.45002ZM208.643 1.62283L208.552 2.11466L209.255 2.24322L209.345 1.75139L209.435 1.25956L208.733 1.131L208.643 1.62283ZM209.345 1.75139L209.255 2.24322L209.957 2.37178L210.048 1.87995L210.138 1.38812L209.435 1.25956L209.345 1.75139ZM210.048 1.87995L209.957 2.37178C210.478 2.46699 211 2.47877 211.521 2.40671L211.452 1.91142L211.384 1.41612C210.969 1.47352 210.554 1.46433 210.138 1.38812L210.048 1.87995ZM211.452 1.91142L211.521 2.40671L212.223 2.30961L212.155 1.81432L212.087 1.31903L211.384 1.41612L211.452 1.91142ZM212.155 1.81432L212.223 2.30961L212.926 2.21251L212.857 1.71722L212.789 1.22193L212.087 1.31903L212.155 1.81432ZM212.857 1.71722L212.926 2.21251C213.383 2.1493 213.84 2.10162 214.298 2.06945L214.262 1.57068L214.227 1.07191C213.748 1.10567 213.268 1.15568 212.789 1.22193L212.857 1.71722ZM214.262 1.57068L214.298 2.06945L215 2.02001L214.965 1.52124L214.93 1.02247L214.227 1.07191L214.262 1.57068ZM214.965 1.52124L215 2.02001L215.703 1.97057L215.667 1.4718L215.632 0.973033L214.93 1.02247L214.965 1.52124ZM215.667 1.4718L215.703 1.97057C216.132 1.94032 216.562 1.95971 216.993 2.02903L217.072 1.53538L217.152 1.04173C216.646 0.960354 216.139 0.937353 215.632 0.973033L215.667 1.4718ZM217.072 1.53538L216.993 2.02903L217.696 2.14205L217.775 1.6484L217.854 1.15475L217.152 1.04173L217.072 1.53538ZM217.775 1.6484L217.696 2.14205L218.398 2.25507L218.477 1.76142L218.557 1.26776L217.854 1.15475L217.775 1.6484ZM218.477 1.76142L218.398 2.25507C218.939 2.34217 219.481 2.30964 220.017 2.16011L219.882 1.6785L219.748 1.19688C219.348 1.30861 218.952 1.33135 218.557 1.26776L218.477 1.76142ZM219.882 1.6785L220.017 2.16011L220.719 1.96417L220.585 1.48256L220.451 1.00094L219.748 1.19688L219.882 1.6785ZM220.585 1.48256L220.719 1.96417L221.422 1.76824L221.287 1.28662L221.153 0.805001L220.451 1.00094L220.585 1.48256ZM221.287 1.28662L221.422 1.76824C221.843 1.65082 222.26 1.60019 222.675 1.61436L222.692 1.11465L222.71 0.614946C222.188 0.597153 221.669 0.661161 221.153 0.805001L221.287 1.28662ZM222.692 1.11465L222.675 1.61436L223.378 1.63834L223.395 1.13863L223.412 0.638922L222.71 0.614946L222.692 1.11465ZM223.395 1.13863L223.378 1.63834L224.08 1.66232L224.097 1.16261L224.115 0.662898L223.412 0.638922L223.395 1.13863ZM224.097 1.16261L224.08 1.66232C224.514 1.67712 224.949 1.73669 225.386 1.84166L225.502 1.35552L225.619 0.869381C225.119 0.749102 224.617 0.680062 224.115 0.662898L224.097 1.16261ZM225.502 1.35552L225.386 1.84166L226.088 2.0106L226.205 1.52446L226.322 1.03832L225.619 0.869381L225.502 1.35552ZM226.205 1.52446L226.088 2.0106L226.791 2.17954L226.908 1.6934L227.024 1.20726L226.322 1.03832L226.205 1.52446ZM226.908 1.6934L226.791 2.17954C227.346 2.31303 227.903 2.2968 228.455 2.13311L228.312 1.65378L228.17 1.17446C227.785 1.28884 227.406 1.29902 227.024 1.20726L226.908 1.6934ZM228.312 1.65378L228.455 2.13311L229.157 1.92455L229.015 1.44523L228.873 0.965903L228.17 1.17446L228.312 1.65378ZM229.015 1.44523L229.157 1.92455L229.86 1.71599L229.717 1.23667L229.575 0.757347L228.873 0.965903L229.015 1.44523ZM229.717 1.23667L229.86 1.71599C230.276 1.59242 230.688 1.54245 231.097 1.56337L231.122 1.06403L231.148 0.564679C230.621 0.537719 230.096 0.602841 229.575 0.757347L229.717 1.23667ZM231.122 1.06403L231.097 1.56337L231.799 1.59929L231.825 1.09994L231.851 0.600592L231.148 0.564679L231.122 1.06403ZM231.825 1.09994L231.799 1.59929L232.502 1.6352L232.527 1.13585L232.553 0.636505L231.851 0.600592L231.825 1.09994ZM232.527 1.13585L232.502 1.6352C232.975 1.65936 233.447 1.67754 233.92 1.68975L233.932 1.18992L233.945 0.690086C233.481 0.678093 233.017 0.660233 232.553 0.636505L232.527 1.13585ZM233.932 1.18992L233.92 1.68975L234.622 1.7079L234.635 1.20807L234.648 0.708238L233.945 0.690086L233.932 1.18992ZM234.635 1.20807L234.622 1.7079L235.325 1.72606L235.337 1.22622L235.35 0.72639L234.648 0.708238L234.635 1.20807ZM235.337 1.22622L235.325 1.72606C235.787 1.73799 236.248 1.7588 236.71 1.78849L236.742 1.28952L236.775 0.790547C236.3 0.760043 235.825 0.738657 235.35 0.72639L235.337 1.22622ZM236.742 1.28952L236.71 1.78849L237.413 1.83363L237.445 1.33466L237.477 0.835689L236.775 0.790547L236.742 1.28952ZM237.445 1.33466L237.413 1.83363L238.115 1.87877L238.147 1.3798L238.18 0.880832L237.477 0.835689L237.445 1.33466ZM238.147 1.3798L238.115 1.87877C238.56 1.90733 239.005 1.96797 239.45 2.06091L239.552 1.57144L239.655 1.08197C239.164 0.979586 238.672 0.912468 238.18 0.880832L238.147 1.3798ZM239.552 1.57144L239.45 2.06091L240.153 2.20741L240.255 1.71794L240.357 1.22847L239.655 1.08197L239.552 1.57144ZM240.255 1.71794L240.153 2.20741L240.855 2.3539L240.957 1.86443L241.06 1.37496L240.357 1.22847L240.255 1.71794ZM240.957 1.86443L240.855 2.3539C241.396 2.46669 241.939 2.45836 242.479 2.32964L242.362 1.84329L242.246 1.35695C241.849 1.45173 241.455 1.4575 241.06 1.37496L240.957 1.86443ZM242.362 1.84329L242.479 2.32964L243.181 2.162L243.065 1.67566L242.949 1.18931L242.246 1.35695L242.362 1.84329ZM243.065 1.67566L243.181 2.162L243.884 1.99437L243.767 1.50802L243.651 1.02168L242.949 1.18931L243.065 1.67566ZM243.767 1.50802L243.884 1.99437C244.322 1.8897 244.759 1.82758 245.196 1.80748L245.173 1.30801L245.149 0.80854C244.649 0.831609 244.149 0.902833 243.651 1.02168L243.767 1.50802ZM245.173 1.30801L245.196 1.80748L245.898 1.7751L245.875 1.27563L245.852 0.776161L245.149 0.80854L245.173 1.30801ZM245.875 1.27563L245.898 1.7751L246.601 1.74272L246.577 1.24325L246.554 0.743782L245.852 0.776161L245.875 1.27563ZM246.577 1.24325L246.601 1.74272C247.068 1.72117 247.536 1.7006 248.003 1.68102L247.982 1.18146L247.962 0.681894C247.493 0.701535 247.024 0.722164 246.554 0.743782L246.577 1.24325ZM247.982 1.18146L248.003 1.68102L248.706 1.6516L248.685 1.15204L248.664 0.652478L247.962 0.681894L247.982 1.18146ZM248.685 1.15204L248.706 1.6516L249.408 1.62219L249.387 1.12262L249.367 0.623062L248.664 0.652478L248.685 1.15204ZM249.387 1.12262L249.408 1.62219C249.876 1.60263 250.343 1.58476 250.81 1.56859L250.792 1.06889L250.775 0.569186C250.306 0.585442 249.836 0.603401 249.367 0.623062L249.387 1.12262ZM250.792 1.06889L250.81 1.56859L251.512 1.54426L251.495 1.04456L251.478 0.544864L250.775 0.569186L250.792 1.06889ZM251.495 1.04456L251.512 1.54426L252.215 1.51994L252.197 1.02024L252.18 0.520542L251.478 0.544864L251.495 1.04456ZM252.197 1.02024L252.215 1.51994C252.654 1.50473 253.094 1.52766 253.534 1.58888L253.602 1.09365L253.671 0.598421C253.175 0.529331 252.678 0.50332 252.18 0.520542L252.197 1.02024ZM253.602 1.09365L253.534 1.58888L254.236 1.68661L254.305 1.19138L254.374 0.696153L253.671 0.598421L253.602 1.09365ZM254.305 1.19138L254.236 1.68661L254.939 1.78435L255.007 1.28912L255.076 0.793885L254.374 0.696153L254.305 1.19138ZM255.007 1.28912L254.939 1.78435C255.448 1.85519 255.958 1.86254 256.467 1.8063L256.413 1.30932L256.358 0.812333C255.931 0.859462 255.504 0.853354 255.076 0.793885L255.007 1.28912ZM256.413 1.30932L256.467 1.8063L257.17 1.72877L257.115 1.23178L257.06 0.734801L256.358 0.812333L256.413 1.30932ZM257.115 1.23178L257.17 1.72877L257.872 1.65123L257.818 1.15425L257.763 0.657269L257.06 0.734801L257.115 1.23178ZM257.818 1.15425L257.872 1.65123C258.317 1.60213 258.762 1.58473 259.206 1.59898L259.223 1.09924L259.239 0.599498C258.746 0.583721 258.254 0.602999 257.763 0.657269L257.818 1.15425ZM259.223 1.09924L259.206 1.59898L259.909 1.62151L259.925 1.12176L259.941 0.622019L259.239 0.599498L259.223 1.09924ZM259.925 1.12176L259.909 1.62151L260.611 1.64403L260.628 1.14428L260.644 0.644541L259.941 0.622019L259.925 1.12176ZM260.628 1.14428L260.611 1.64403C261.091 1.65941 261.571 1.65845 262.051 1.64115L262.033 1.14147L262.014 0.641799C261.557 0.658278 261.1 0.659191 260.644 0.644541L260.628 1.14428ZM262.033 1.14147L262.051 1.64115L262.753 1.61582L262.735 1.11614L262.717 0.616469L262.014 0.641799L262.033 1.14147ZM262.735 1.11614L262.753 1.61582L263.456 1.59049L263.438 1.09081L263.419 0.591138L262.717 0.616469L262.735 1.11614ZM263.438 1.09081L263.456 1.59049C263.917 1.57386 264.378 1.56703 264.839 1.57L264.842 1.07001L264.846 0.570016C264.37 0.566955 263.895 0.573996 263.419 0.591138L263.438 1.09081ZM264.842 1.07001L264.839 1.57L265.542 1.57452L265.545 1.07453L265.548 0.574539L264.846 0.570016L264.842 1.07001ZM265.545 1.07453L265.542 1.57452L266.244 1.57904L266.247 1.07905L266.251 0.579062L265.548 0.574539L265.545 1.07453ZM266.247 1.07905L266.244 1.57904C266.704 1.582 267.165 1.5962 267.625 1.62164L267.652 1.1224L267.68 0.623165C267.204 0.596831 266.727 0.58213 266.251 0.579062L266.247 1.07905ZM267.652 1.1224L267.625 1.62164L268.327 1.66047L268.355 1.16123L268.383 0.661993L267.68 0.623165L267.652 1.1224ZM268.355 1.16123L268.327 1.66047L269.03 1.6993L269.057 1.20006L269.085 0.70082L268.383 0.661993L268.355 1.16123ZM269.057 1.20006L269.03 1.6993C269.504 1.72551 269.979 1.74317 270.453 1.75227L270.463 1.25236L270.472 0.752456C270.01 0.743586 269.547 0.726375 269.085 0.70082L269.057 1.20006ZM270.463 1.25236L270.453 1.75227L271.155 1.76575L271.165 1.26584L271.175 0.765934L270.472 0.752456L270.463 1.25236ZM271.165 1.26584L271.155 1.76575L271.858 1.77923L271.867 1.27932L271.877 0.779411L271.175 0.765934L271.165 1.26584ZM271.867 1.27932L271.858 1.77923C272.287 1.78747 272.718 1.84525 273.151 1.95344L273.272 1.46835L273.394 0.98327C272.89 0.857383 272.384 0.78914 271.877 0.779411L271.867 1.27932ZM273.272 1.46835L273.151 1.95344L273.854 2.12899L273.975 1.64391L274.096 1.15883L273.394 0.98327L273.272 1.46835ZM273.975 1.64391L273.854 2.12899L274.556 2.30455L274.678 1.81946L274.799 1.33438L274.096 1.15883L273.975 1.64391ZM274.678 1.81946L274.556 2.30455C275.118 2.44494 275.682 2.42204 276.238 2.23971L276.083 1.76461L275.927 1.28951C275.546 1.4144 275.174 1.42807 274.799 1.33438L274.678 1.81946ZM276.083 1.76461L276.238 2.23971L276.941 2.0093L276.785 1.5342L276.629 1.0591L275.927 1.28951L276.083 1.76461ZM276.785 1.5342L276.941 2.0093L277.643 1.77889L277.487 1.30379L277.332 0.828689L276.629 1.0591L276.785 1.5342ZM277.487 1.30379L277.643 1.77889C278.046 1.64697 278.44 1.6069 278.833 1.65387L278.892 1.15741L278.952 0.660951C278.408 0.595872 277.866 0.653393 277.332 0.828689L277.487 1.30379ZM278.892 1.15741L278.833 1.65387L279.536 1.73791L279.595 1.24145L279.654 0.744986L278.952 0.660951L278.892 1.15741ZM279.595 1.24145L279.536 1.73791L280.238 1.82194L280.298 1.32548L280.357 0.829021L279.654 0.744986L279.595 1.24145ZM280.298 1.32548L280.238 1.82194C280.712 1.87864 281.186 1.92717 281.66 1.96755L281.703 1.46935L281.745 0.971156C281.282 0.931749 280.82 0.884372 280.357 0.829021L280.298 1.32548ZM281.703 1.46935L281.66 1.96755L282.363 2.02738L282.405 1.52919L282.447 1.03099L281.745 0.971156L281.703 1.46935ZM282.405 1.52919L282.363 2.02738L283.065 2.08722L283.107 1.58902L283.15 1.09083L282.447 1.03099L282.405 1.52919ZM283.107 1.58902L283.065 2.08722C283.531 2.12689 283.996 2.17029 284.462 2.21743L284.512 1.71997L284.563 1.22252C284.092 1.17484 283.621 1.13094 283.15 1.09083L283.107 1.58902ZM284.512 1.71997L284.462 2.21743L285.165 2.28854L285.215 1.79109L285.265 1.29363L284.563 1.22252L284.512 1.71997ZM285.215 1.79109L285.165 2.28854L285.867 2.35966L285.918 1.8622L285.968 1.36474L285.265 1.29363L285.215 1.79109ZM285.918 1.8622L285.867 2.35966C286.391 2.41263 286.913 2.37938 287.433 2.26111L287.323 1.77355L287.212 1.286C286.795 1.38073 286.381 1.40658 285.968 1.36474L285.918 1.8622ZM287.323 1.77355L287.433 2.26111L288.136 2.10135L288.025 1.6138L287.914 1.12625L287.212 1.286L287.323 1.77355ZM288.025 1.6138L288.136 2.10135L288.838 1.94159L288.727 1.45404L288.617 0.96649L287.914 1.12625L288.025 1.6138ZM288.727 1.45404L288.838 1.94159C289.247 1.84873 289.652 1.83345 290.058 1.89465L290.132 1.40024L290.207 0.905833C289.676 0.825757 289.145 0.846347 288.617 0.96649L288.727 1.45404ZM290.132 1.40024L290.058 1.89465L290.76 2.0006L290.835 1.5062L290.91 1.01179L290.207 0.905833L290.132 1.40024ZM290.835 1.5062L290.76 2.0006L291.463 2.10656L291.538 1.61215L291.612 1.11774L290.91 1.01179L290.835 1.5062ZM291.538 1.61215L291.463 2.10656C291.97 2.18306 292.478 2.19913 292.986 2.15453L292.943 1.65645L292.899 1.15836C292.47 1.19598 292.042 1.18252 291.612 1.11774L291.538 1.61215ZM292.943 1.65645L292.986 2.15453L293.689 2.09287L293.645 1.59478L293.601 1.0967L292.899 1.15836L292.943 1.65645ZM293.645 1.59478L293.689 2.09287L294.391 2.03121L294.347 1.53312L294.304 1.03504L293.601 1.0967L293.645 1.59478ZM294.347 1.53312L294.391 2.03121C294.862 1.98992 295.332 1.94561 295.803 1.8983L295.752 1.40081L295.702 0.903318C295.236 0.95021 294.77 0.994116 294.304 1.03504L294.347 1.53312ZM295.752 1.40081L295.803 1.8983L296.505 1.82764L296.455 1.33015L296.405 0.832664L295.702 0.903318L295.752 1.40081ZM296.455 1.33015L296.505 1.82764L297.208 1.75699L297.158 1.2595L297.107 0.762011L296.405 0.832664L296.455 1.33015ZM297.158 1.2595L297.208 1.75699C297.624 1.71514 298.04 1.73815 298.459 1.82693L298.562 1.3378L298.666 0.848677C298.148 0.738849 297.628 0.709652 297.107 0.762011L297.158 1.2595ZM298.562 1.3378L298.459 1.82693L299.161 1.97588L299.265 1.48676L299.369 0.997633L298.666 0.848677L298.562 1.3378ZM299.265 1.48676L299.161 1.97588L299.864 2.12484L299.967 1.63571L300.071 1.14659L299.369 0.997633L299.265 1.48676ZM299.967 1.63571L299.864 2.12484C300.384 2.23518 300.907 2.26071 301.43 2.2005L301.372 1.70379L301.315 1.20707C300.901 1.25471 300.487 1.23486 300.071 1.14659L299.967 1.63571ZM301.372 1.70379L301.43 2.2005L302.132 2.11962L302.075 1.6229L302.018 1.12618L301.315 1.20707L301.372 1.70379ZM302.075 1.6229L302.132 2.11962L302.835 2.03874L302.777 1.54202L302.72 1.0453L302.018 1.12618L302.075 1.6229ZM302.777 1.54202L302.835 2.03874C303.284 1.98705 303.732 1.96194 304.181 1.96335L304.182 1.46336L304.184 0.963358C303.696 0.961816 303.208 0.989147 302.72 1.0453L302.777 1.54202ZM304.182 1.46336L304.181 1.96335L304.883 1.96557L304.885 1.46558L304.887 0.965579L304.184 0.963358L304.182 1.46336ZM304.885 1.46558L304.883 1.96557L305.586 1.96779L305.587 1.4678L305.589 0.967799L304.887 0.965579L304.885 1.46558ZM305.587 1.4678L305.586 1.96779C306.047 1.96925 306.509 1.98041 306.97 2.00128L306.992 1.50179L307.015 1.0023C306.54 0.980803 306.064 0.969302 305.589 0.967799L305.587 1.4678ZM306.992 1.50179L306.97 2.00128L307.672 2.03305L307.695 1.53356L307.718 1.03407L307.015 1.0023L306.992 1.50179ZM307.695 1.53356L307.672 2.03305L308.375 2.06482L308.397 1.56533L308.42 1.06584L307.718 1.03407L307.695 1.53356ZM308.397 1.56533L308.375 2.06482C308.856 2.0866 309.338 2.08926 309.82 2.07281L309.802 1.5731L309.785 1.07339C309.33 1.08894 308.875 1.08643 308.42 1.06584L308.397 1.56533ZM309.802 1.5731L309.82 2.07281L310.522 2.0488L310.505 1.54909L310.488 1.04938L309.785 1.07339L309.802 1.5731ZM310.505 1.54909L310.522 2.0488L311.225 2.02479L311.207 1.52508L311.19 1.02537L310.488 1.04938L310.505 1.54909ZM311.207 1.52508L311.225 2.02479C311.661 2.00988 312.097 2.03677 312.535 2.10568L312.612 1.61178L312.69 1.11787C312.191 1.03918 311.691 1.00827 311.19 1.02537L311.207 1.52508ZM312.612 1.61178L312.535 2.10568L313.237 2.21639L313.315 1.72248L313.393 1.22858L312.69 1.11787L312.612 1.61178ZM313.315 1.72248L313.237 2.21639L313.94 2.32709L314.017 1.83318L314.095 1.33928L313.393 1.22858L313.315 1.72248ZM314.017 1.83318L313.94 2.32709C314.44 2.40594 314.941 2.43533 315.443 2.415L315.422 1.91541L315.402 1.41582C314.967 1.43346 314.532 1.40803 314.095 1.33928L314.017 1.83318ZM315.422 1.91541L315.443 2.415L316.145 2.38651L316.125 1.88692L316.105 1.38733L315.402 1.41582L315.422 1.91541ZM316.125 1.88692L316.145 2.38651L316.848 2.35803L316.827 1.85844L316.807 1.35885L316.105 1.38733L316.125 1.88692ZM316.827 1.85844L316.848 2.35803C317.344 2.33791 317.84 2.27612 318.335 2.173L318.232 1.68352L318.13 1.19404C317.689 1.28617 317.248 1.341 316.807 1.35885L316.827 1.85844ZM318.232 1.68352L318.335 2.173L319.037 2.02656L318.935 1.53708L318.833 1.0476L318.13 1.19404L318.232 1.68352ZM318.935 1.53708L319.037 2.02656L319.74 1.88011L319.637 1.39064L319.535 0.901157L318.833 1.0476L318.935 1.53708ZM319.637 1.39064L319.74 1.88011C320.189 1.78651 320.637 1.72067 321.085 1.68246L321.042 1.18427L321 0.686083C320.511 0.727765 320.023 0.799505 319.535 0.901157L319.637 1.39064ZM321.042 1.18427L321.085 1.68246L321.787 1.62255L321.745 1.12435L321.702 0.626163L321 0.686083L321.042 1.18427ZM321.745 1.12435L321.787 1.62255L322.49 1.56263L322.447 1.06443L322.405 0.566244L321.702 0.626163L321.745 1.12435ZM322.447 1.06443L322.49 1.56263C322.946 1.52376 323.401 1.50235 323.857 1.4984L323.852 0.998417L323.848 0.498436C323.367 0.502612 322.886 0.525219 322.405 0.566244L322.447 1.06443ZM323.852 0.998417L323.857 1.4984L324.559 1.4923L324.555 0.99232L324.551 0.492339L323.848 0.498436L323.852 0.998417ZM324.555 0.99232L324.559 1.4923L325.262 1.4862L325.257 0.986222L325.253 0.486241L324.551 0.492339L324.555 0.99232ZM325.257 0.986222L325.262 1.4862C325.727 1.48216 326.126 1.4835 326.46 1.49008L326.47 0.990179L326.48 0.490276C326.134 0.483452 325.725 0.482149 325.253 0.486241L325.257 0.986222ZM326.47 0.990179L326.46 1.49008L326.97 1.50014L326.98 1.00023L326.99 0.500331L326.48 0.490276L326.47 0.990179ZM326.98 1.00023L326.97 1.50014L327.48 1.51019L327.49 1.01029L327.5 0.510386L326.99 0.500331L326.98 1.00023ZM327.49 1.01029L327.48 1.51019C327.64 1.51335 327.721 1.52526 327.749 1.53232C327.766 1.53661 327.728 1.53034 327.675 1.49196C327.645 1.47045 327.601 1.43164 327.563 1.36937C327.524 1.30315 327.5 1.22401 327.5 1.14026H328H328.5C328.5 0.911949 328.368 0.759504 328.262 0.682378C328.166 0.613179 328.064 0.580672 327.996 0.563294C327.854 0.527033 327.68 0.513928 327.5 0.510386L327.49 1.01029ZM328 1.14026H327.5V1.26017H328H328.5V1.14026H328ZM328 1.26017L327.539 1.06775L327.439 1.30757L327.9 1.5L328.361 1.69242L328.461 1.4526L328 1.26017ZM327.9 1.5V2H328V1.5V1H327.9V1.5Z" fill="#E8B4B8"/>
</svg>
