<svg width="329" height="36" viewBox="0 0 329 36" fill="none" xmlns="http://www.w3.org/2000/svg">
<path d="M328.5 34.8164C328.5 34.9328 328.461 35.0766 328.348 35.1914C328.246 35.2944 328.129 35.3309 328.059 35.3438C327.931 35.3667 327.813 35.3411 327.758 35.3281C327.625 35.2967 327.459 35.2335 327.285 35.1562L326.777 34.9297L326.266 34.7031C326.032 34.5997 325.728 34.5561 325.328 34.6133L323.922 34.8164C323.434 34.8861 322.945 34.9268 322.457 34.9375L321.758 34.9531L321.055 34.9688C320.567 34.9795 320.078 34.9586 319.59 34.9102L318.184 34.7695C317.759 34.7273 317.332 34.7401 316.906 34.8086L315.5 35.0352C314.968 35.1205 314.436 35.1011 313.906 34.9805L312.5 34.6602C312.128 34.5756 311.757 34.6006 311.375 34.7344L309.969 35.2266C309.445 35.4106 308.914 35.4936 308.379 35.4727L306.973 35.418C306.491 35.399 306.008 35.3615 305.527 35.3047L304.828 35.2227L304.125 35.1367C303.662 35.082 303.197 35.0367 302.734 34.9961L301.328 34.8711C300.908 34.8343 300.488 34.8579 300.066 34.9414L298.66 35.2227C298.13 35.3277 297.597 35.3312 297.066 35.2344L296.363 35.1055L295.664 34.9766C295.233 34.8978 294.801 34.8702 294.371 34.8906L293.668 34.9219L292.965 34.957C292.469 34.9806 291.972 34.963 291.477 34.9023L290.07 34.7305C289.659 34.6803 289.246 34.6993 288.832 34.7891L288.133 34.9414L287.43 35.0938C286.939 35.2002 286.446 35.2706 285.953 35.3047L284.547 35.3984C284.04 35.4334 283.533 35.4124 283.027 35.332L282.328 35.2188L281.625 35.1094C281.155 35.0347 280.685 34.9551 280.215 34.875L279.512 34.7539L278.809 34.6367C278.407 34.5682 278.006 34.5782 277.602 34.6719L276.195 35C275.674 35.121 275.15 35.154 274.625 35.0977L273.922 35.0234L273.219 34.9453C272.765 34.8965 272.309 34.8687 271.855 34.8594L271.156 34.8438L270.453 34.8281C269.994 34.8187 269.533 34.8242 269.074 34.8398L267.668 34.8867C267.198 34.9027 266.727 34.9149 266.258 34.9258L265.555 34.9453L264.855 34.9609C264.403 34.9714 263.949 35.0028 263.496 35.0547L262.793 35.1328L262.09 35.2148C261.571 35.2743 261.052 35.2541 260.535 35.1562L259.129 34.8906C258.71 34.8113 258.292 34.796 257.875 34.8438L257.172 34.9219L256.469 35.0039C255.945 35.0638 255.42 35.0369 254.898 34.9219L254.195 34.7656L253.496 34.6094C253.123 34.5271 252.75 34.5545 252.367 34.6914L250.961 35.1914C250.439 35.3782 249.908 35.4689 249.375 35.457L248.676 35.4414L247.973 35.4258C247.468 35.4145 246.963 35.3479 246.461 35.2266L245.758 35.0547L245.055 34.8867C244.626 34.783 244.199 34.7332 243.773 34.7383L242.367 34.7539C241.932 34.7592 241.496 34.8077 241.059 34.8984L240.355 35.0469L239.652 35.1914C239.151 35.2954 238.648 35.3472 238.145 35.3438L237.441 35.3359L236.738 35.332C236.262 35.3287 235.785 35.3132 235.309 35.2852L234.605 35.2461L233.902 35.2031C233.425 35.175 232.946 35.1335 232.469 35.0781L231.766 34.9961L231.066 34.9141C230.623 34.8626 230.177 34.8438 229.734 34.8594L229.031 34.8867L228.328 34.9102C227.871 34.9262 227.414 34.9584 226.957 35.0039L226.254 35.0742L225.551 35.1406C225.029 35.1924 224.507 35.1623 223.988 35.0469L222.582 34.7344C222.144 34.637 221.706 34.5812 221.27 34.5664L220.566 34.543L219.867 34.5195C219.42 34.5044 218.971 34.514 218.523 34.5547L217.82 34.6211L217.117 34.6836C216.635 34.7275 216.151 34.7523 215.668 34.7539H214.965L214.266 34.7578C213.791 34.7594 213.314 34.7534 212.84 34.7383L212.141 34.7148L211.438 34.6914C210.999 34.6774 210.557 34.7024 210.117 34.7656L209.418 34.8672L208.715 34.9688C208.242 35.0367 207.766 35.095 207.293 35.1484L206.59 35.2305L205.887 35.3086C205.369 35.3668 204.852 35.3472 204.336 35.25L202.93 34.9844C202.499 34.9031 202.07 34.8721 201.641 34.8906L200.234 34.9531C199.785 34.9727 199.333 35.0163 198.883 35.0859L198.18 35.1953L197.48 35.3008C196.994 35.3759 196.506 35.4247 196.02 35.4453L195.316 35.4766L194.613 35.5039C194.076 35.5266 193.541 35.4406 193.016 35.25L192.316 34.9961L191.613 34.7422C191.2 34.5925 190.792 34.5235 190.391 34.5352L189.691 34.5586L188.988 34.5781C188.542 34.5911 188.092 34.632 187.645 34.7031L186.945 34.8164L186.242 34.9258C185.751 35.0039 185.258 35.0482 184.766 35.0547L183.359 35.0703C182.855 35.0769 182.35 35.0297 181.848 34.9258L181.145 34.7812L180.441 34.6328C180.036 34.5489 179.631 34.547 179.227 34.6211L178.523 34.75L177.824 34.8789C177.309 34.9732 176.79 34.9925 176.273 34.9375L175.57 34.8633L174.871 34.7852C174.449 34.7402 174.025 34.7571 173.602 34.8281L172.195 35.0625C171.691 35.1471 171.185 35.1751 170.68 35.1484L169.98 35.1133L169.277 35.0742C168.801 35.0491 168.324 35.0136 167.848 34.9648L167.145 34.8906L166.441 34.8203C166.029 34.7781 165.615 34.8055 165.199 34.9023L164.5 35.0664L163.797 35.2266C163.25 35.354 162.698 35.3508 162.152 35.2109L161.449 35.0273L160.75 34.8477C160.349 34.745 159.952 34.7322 159.555 34.8008L158.148 35.043C157.62 35.1345 157.09 35.1275 156.562 35.0234L155.859 34.8867L155.156 34.7461C154.735 34.6629 154.314 34.6427 153.895 34.6836L153.195 34.75L152.492 34.8203C151.993 34.869 151.491 34.8722 150.992 34.8281L150.293 34.7656L149.59 34.7031C149.188 34.6676 148.781 34.7084 148.371 34.832L147.668 35.0469L146.969 35.2578C146.399 35.4298 145.82 35.418 145.254 35.2227L144.551 34.9766L143.848 34.7344C143.488 34.6106 143.135 34.6139 142.773 34.7422L142.074 34.9922L141.371 35.2422C140.83 35.4342 140.279 35.4931 139.727 35.4141L138.32 35.2109C137.841 35.1423 137.362 35.0561 136.883 34.9531L136.18 34.8047L135.477 34.6523C135.06 34.5628 134.645 34.5395 134.23 34.582L133.527 34.6562L132.824 34.7266C132.373 34.7731 131.921 34.8434 131.469 34.9375L130.766 35.0859L130.062 35.2305C129.521 35.3429 128.977 35.3346 128.438 35.2031L127.738 35.0312L127.035 34.8594C126.635 34.7618 126.237 34.7513 125.84 34.8242L124.434 35.082C123.915 35.1775 123.395 35.1944 122.875 35.1289L121.469 34.9492C121.014 34.892 120.56 34.8556 120.105 34.8359L118.699 34.7734C118.225 34.7529 117.751 34.7252 117.277 34.6875L116.574 34.6289L115.871 34.5742C115.418 34.5382 114.965 34.5214 114.512 34.5234L113.105 34.5312C112.674 34.5332 112.239 34.5791 111.805 34.6758L111.105 34.832L110.402 34.9883C109.919 35.0959 109.434 35.1829 108.949 35.2422L107.543 35.4141C107.029 35.477 106.514 35.4681 106 35.3867L105.297 35.2734L104.594 35.1641C104.169 35.0967 103.745 35.0815 103.32 35.125L102.617 35.1992L101.914 35.2695C101.437 35.3187 100.958 35.3564 100.48 35.3789L99.7773 35.4141L99.0742 35.4453C98.545 35.4701 98.0172 35.3983 97.4961 35.2344L96.7969 35.0156L96.0938 34.793C95.6748 34.6612 95.259 34.6006 94.8477 34.6094L93.4414 34.6406C92.9831 34.6504 92.5248 34.6728 92.0664 34.707L91.3633 34.7578L90.6602 34.8125C90.1629 34.8496 89.6651 34.8424 89.168 34.793L87.7617 34.6523C87.3362 34.6101 86.9108 34.6224 86.4844 34.6875L85.7812 34.793L85.0781 34.9023C84.5722 34.9797 84.0655 34.997 83.5586 34.957L82.1523 34.8477C81.7083 34.8126 81.2643 34.8076 80.8203 34.8359L80.1172 34.8828L79.4141 34.9258C78.9441 34.9558 78.4738 34.9864 78.0039 35.0117L77.3008 35.0469L76.5977 35.0859C76.1175 35.1117 75.6365 35.1194 75.1562 35.1094L74.4531 35.0938L73.7539 35.082C73.291 35.0724 72.8262 35.0696 72.3633 35.0742L71.6602 35.0781L70.957 35.0859C70.4765 35.0907 69.996 35.0783 69.5156 35.0469L68.1094 34.9531C67.6588 34.9236 67.2083 34.9205 66.7578 34.9375L66.0547 34.9609L65.3516 34.9883C64.8512 35.0072 64.3509 34.9792 63.8516 34.9023L62.4453 34.6836C62.0558 34.6238 61.6632 34.6564 61.2656 34.7812L60.5664 35L59.8633 35.2227C59.2974 35.4004 58.7221 35.4004 58.1562 35.2227L57.457 35L56.7539 34.7812C56.3373 34.6504 55.9244 34.5913 55.5156 34.6055L54.8125 34.6328L54.1094 34.6562C53.6567 34.6721 53.203 34.7078 52.75 34.7656L52.0469 34.8555L51.3477 34.9453C50.844 35.0096 50.3362 35.0208 49.832 34.9766L49.1328 34.9141L48.4297 34.8516C47.9823 34.8123 47.5331 34.8029 47.0859 34.8203L46.3828 34.8477L45.6836 34.875C45.2037 34.8937 44.7221 34.8945 44.2422 34.8789L42.8359 34.832C42.3868 34.8174 41.9376 34.8309 41.4883 34.8672L40.7852 34.9219L40.082 34.9805C39.5681 35.022 39.0548 34.9906 38.543 34.8906L37.1367 34.6172C36.7524 34.542 36.3677 34.5615 35.9766 34.6836L35.2734 34.9062L34.5703 35.125C34.0559 35.2855 33.5371 35.3666 33.0156 35.3633L32.3125 35.3555L31.6094 35.3516C31.1383 35.3484 30.6664 35.343 30.1953 35.332L29.4922 35.3164L28.7891 35.2969C28.336 35.2864 27.8829 35.299 27.4297 35.3281L26.7266 35.3711L26.0234 35.418C25.495 35.4518 24.967 35.3911 24.4453 35.2383L23.7461 35.0312L23.043 34.8242C22.6141 34.6985 22.1854 34.633 21.7617 34.6211L21.0625 34.6016L20.3594 34.582C19.9283 34.5699 19.4956 34.6039 19.0625 34.6875L18.3594 34.8242L17.6562 34.957C17.1245 35.0596 16.5901 35.0589 16.0586 34.9531L15.3555 34.8125L14.6562 34.6758C14.2568 34.5963 13.8576 34.6013 13.457 34.6914L12.7539 34.8477L12.0508 35.0078C11.5571 35.1188 11.062 35.1862 10.5664 35.2148L9.86328 35.2578L9.16016 35.2969C8.63524 35.3271 8.11265 35.2671 7.59375 35.1211L6.89062 34.9258L6.1875 34.7266C5.76538 34.6077 5.34626 34.5541 4.92969 34.5625L4.22656 34.5742L3.52344 34.5898C3.08706 34.5988 2.4254 34.666 1.52734 34.7969L0.171875 34.9961L0.136719 35H0V34H0.0546875L1.38281 33.8086C2.29129 33.6762 3.00366 33.6001 3.50391 33.5898L4.20312 33.5781L4.90625 33.5625C5.42556 33.5518 5.94328 33.621 6.45703 33.7656L7.16016 33.9609L7.86328 34.1602C8.28006 34.2775 8.69473 34.3206 9.10547 34.2969L9.80469 34.2578L10.5078 34.2188C10.948 34.1933 11.39 34.1306 11.832 34.0312L12.5352 33.8711L13.2383 33.7148C13.7743 33.5943 14.3144 33.5884 14.8516 33.6953L15.5508 33.832L16.2539 33.9727C16.6588 34.0533 17.0641 34.0547 17.4688 33.9766L18.1719 33.8398L18.8711 33.707C19.3746 33.6098 19.8812 33.5678 20.3867 33.582L21.793 33.6211C22.3054 33.6356 22.8169 33.7185 23.3242 33.8672L24.0273 34.0703L24.7266 34.2773C25.1411 34.3988 25.5532 34.4442 25.9609 34.418L26.6641 34.375L27.3672 34.3281C27.8489 34.2972 28.3307 34.2896 28.8125 34.3008L30.2188 34.332C30.6843 34.3429 31.1516 34.3485 31.6172 34.3516L32.3164 34.3555L33.0195 34.3633C33.4338 34.366 33.8521 34.2996 34.2734 34.168L35.6797 33.7305C36.2245 33.5605 36.7764 33.5288 37.3281 33.6367L38.7344 33.9102C39.1583 33.993 39.5821 34.0185 40.0039 33.9844L40.7031 33.9258L41.4062 33.8711C41.8928 33.8317 42.3804 33.8201 42.8672 33.8359L43.5703 33.8555L44.2734 33.8789C44.7299 33.8938 45.1881 33.8927 45.6445 33.875L46.3438 33.8477L47.0469 33.8203C47.5361 33.8013 48.0266 33.8126 48.5156 33.8555L49.9219 33.9805C50.3541 34.0183 50.7861 34.0084 51.2188 33.9531L52.625 33.7734C53.1078 33.7118 53.591 33.6731 54.0742 33.6562L55.4805 33.6094C56.0076 33.591 56.5314 33.6651 57.0508 33.8281L57.7539 34.0469L58.457 34.2695C58.8276 34.3859 59.192 34.3858 59.5625 34.2695L60.2656 34.0469L60.9688 33.8281C61.5068 33.6592 62.0515 33.6114 62.5977 33.6953L64.0039 33.9141C64.4407 33.9813 64.8768 34.0047 65.3125 33.9883L66.0156 33.9648L66.7188 33.9375C67.2043 33.9191 67.6903 33.9252 68.1758 33.957L68.8789 34.0039L69.582 34.0469C70.0373 34.0767 70.494 34.0905 70.9492 34.0859L71.6484 34.0781L72.3516 34.0742C72.825 34.0695 73.3 34.0721 73.7734 34.082L74.4766 34.0938L75.1797 34.1094C75.635 34.1188 76.0915 34.1104 76.5469 34.0859L77.25 34.0508L77.9492 34.0117C78.4159 33.9866 78.8849 33.9595 79.3516 33.9297L80.0547 33.8828L80.7539 33.8398C81.2456 33.8084 81.7389 33.8128 82.2305 33.8516L83.6367 33.9609C84.066 33.9948 84.4955 33.9798 84.9258 33.9141L85.6289 33.8047L86.332 33.6992C86.8415 33.6213 87.353 33.6055 87.8633 33.6562L88.5664 33.7266L89.2656 33.7969C89.7052 33.8406 90.1465 33.8453 90.5859 33.8125L91.2891 33.7617L91.9922 33.707C92.4687 33.6715 92.9453 33.6507 93.4219 33.6406L94.8281 33.6094C95.3525 33.5984 95.8738 33.6775 96.3906 33.8398L97.0938 34.0586L97.7969 34.2812C98.2113 34.4116 98.621 34.4643 99.0273 34.4453L99.7305 34.4141L100.434 34.3789C100.893 34.3572 101.353 34.3246 101.812 34.2773L102.516 34.2031L103.215 34.1328C103.726 34.0801 104.239 34.0949 104.75 34.1758L105.453 34.2852L106.156 34.3984C106.579 34.4653 107 34.4735 107.422 34.4219L108.828 34.25C109.28 34.1947 109.731 34.1162 110.184 34.0156L111.59 33.7031C112.092 33.5914 112.597 33.5336 113.102 33.5312L113.801 33.5273L114.504 33.5234C114.986 33.5212 115.471 33.5397 115.953 33.5781L116.656 33.6328L117.355 33.6914C117.818 33.7282 118.284 33.7534 118.746 33.7734L119.445 33.8047L120.148 33.8359C120.63 33.8568 121.112 33.8964 121.594 33.957L123 34.1367C123.417 34.1893 123.836 34.1747 124.254 34.0977L124.953 33.9688L125.656 33.8398C126.194 33.7408 126.734 33.7564 127.27 33.8867L128.676 34.2305C129.072 34.327 129.465 34.3358 129.859 34.2539L130.562 34.1055L131.266 33.9609C131.75 33.86 132.237 33.7845 132.723 33.7344L133.422 33.6602L134.125 33.5898C134.647 33.536 135.169 33.5642 135.688 33.6758L136.391 33.8242L137.094 33.9766C137.551 34.0748 138.008 34.1574 138.465 34.2227L139.164 34.3242L139.867 34.4219C140.251 34.4768 140.639 34.4375 141.035 34.2969L141.738 34.0469L142.441 33.8008C143.016 33.5969 143.6 33.5905 144.176 33.7891L144.879 34.0312L145.582 34.2773C145.952 34.4045 146.314 34.4111 146.68 34.3008L147.379 34.0898L148.082 33.875C148.609 33.7161 149.142 33.66 149.676 33.707L151.082 33.832C151.519 33.8706 151.957 33.8669 152.395 33.8242L153.098 33.7578L153.801 33.6875C154.317 33.6373 154.833 33.6641 155.348 33.7656L156.051 33.9023L156.754 34.043C157.162 34.1236 157.569 34.1291 157.977 34.0586L158.68 33.9375L159.383 33.8125C159.921 33.7193 160.461 33.7419 160.996 33.8789L161.699 34.0625L162.402 34.2422C162.793 34.3421 163.181 34.3446 163.57 34.2539L164.273 34.0898L164.973 33.9258C165.493 33.8045 166.019 33.7706 166.543 33.8242L167.246 33.8984L167.949 33.9688C168.409 34.0158 168.869 34.0499 169.328 34.0742L170.031 34.1133L170.734 34.1484C171.166 34.1712 171.599 34.1468 172.031 34.0742L172.73 33.957L173.434 33.8398C173.946 33.7538 174.463 33.7383 174.977 33.793L175.68 33.8672L176.379 33.9414C176.798 33.986 177.22 33.9714 177.641 33.8945L179.047 33.6367C179.579 33.5393 180.113 33.5463 180.645 33.6562L182.051 33.9453C182.484 34.0348 182.917 34.076 183.348 34.0703L184.047 34.0625L184.75 34.0547C185.193 34.0489 185.638 34.0081 186.082 33.9375L186.785 33.8281L187.488 33.7148C187.977 33.6371 188.467 33.5924 188.957 33.5781L189.66 33.5586L190.363 33.5352C190.898 33.5197 191.429 33.6109 191.953 33.8008L193.359 34.3086C193.77 34.4573 194.172 34.5245 194.57 34.5078L195.977 34.4453C196.426 34.4264 196.875 34.3819 197.324 34.3125L198.027 34.207L198.73 34.0977C199.217 34.0225 199.705 33.9743 200.191 33.9531L201.598 33.8906C202.104 33.8688 202.609 33.905 203.113 34L204.52 34.2656C204.939 34.3449 205.359 34.3597 205.777 34.3125L206.48 34.2344L207.18 34.1562C207.643 34.104 208.107 34.0431 208.57 33.9766L209.273 33.875L209.977 33.7773C210.473 33.706 210.971 33.6755 211.469 33.6914L212.875 33.7383C213.337 33.753 213.8 33.7593 214.262 33.7578L214.965 33.7539H215.664C216.118 33.7524 216.573 33.7288 217.027 33.6875L217.73 33.625L218.434 33.5586C218.922 33.5143 219.41 33.503 219.898 33.5195L221.305 33.5664C221.804 33.5834 222.303 33.6472 222.801 33.7578L224.207 34.0703C224.624 34.163 225.039 34.1896 225.453 34.1484L226.859 34.0078C227.338 33.9602 227.818 33.9269 228.297 33.9102L228.996 33.8867L229.699 33.8633C230.193 33.846 230.687 33.8647 231.18 33.9219L232.586 34.0859C233.044 34.139 233.503 34.1761 233.961 34.2031L235.367 34.2891C235.827 34.3161 236.287 34.3288 236.746 34.332L237.449 34.3359L238.152 34.3438C238.584 34.3466 239.016 34.3009 239.449 34.2109L240.855 33.9219C241.354 33.8183 241.855 33.7599 242.355 33.7539L243.762 33.7383C244.272 33.7322 244.782 33.7915 245.289 33.9141L245.992 34.0859L246.695 34.2539C247.129 34.3589 247.561 34.4161 247.992 34.4258L249.398 34.457C249.802 34.466 250.211 34.3982 250.625 34.25L251.328 34L252.027 33.75C252.581 33.552 253.147 33.5084 253.711 33.6328L255.117 33.9453C255.532 34.0366 255.944 34.0588 256.355 34.0117L257.059 33.9297L257.762 33.8516C258.28 33.7923 258.8 33.8084 259.316 33.9062L260.02 34.0391L260.719 34.1758C261.138 34.2552 261.559 34.2705 261.977 34.2227L262.68 34.1406L263.379 34.0586C263.862 34.0032 264.348 33.9721 264.832 33.9609L265.535 33.9453L266.234 33.9258C266.701 33.915 267.17 33.9026 267.637 33.8867L268.34 33.8633L269.039 33.8398C269.516 33.8236 269.995 33.8183 270.473 33.8281L271.879 33.8594C272.361 33.8693 272.843 33.9013 273.324 33.9531L274.73 34.1016C275.142 34.1458 275.554 34.1235 275.969 34.0273L277.375 33.6992C277.907 33.5758 278.442 33.5573 278.977 33.6484L280.383 33.8906C280.849 33.9701 281.315 34.047 281.781 34.1211L282.484 34.2305L283.188 34.3438C283.618 34.4121 284.047 34.4319 284.477 34.4023L285.18 34.3555L285.883 34.3047C286.326 34.2741 286.77 34.2096 287.215 34.1133L288.621 33.8086C289.143 33.6956 289.667 33.6743 290.191 33.7383L291.598 33.9102C292.038 33.964 292.478 33.9779 292.918 33.957L293.621 33.9258L294.324 33.8906C294.831 33.8666 295.339 33.9 295.844 33.9922L296.543 34.1211L297.246 34.25C297.652 34.3242 298.058 34.319 298.465 34.2383L299.168 34.1016L299.871 33.9609C300.385 33.8591 300.902 33.8297 301.418 33.875L302.117 33.9375L302.82 34C303.294 34.0415 303.769 34.0886 304.242 34.1445L304.945 34.2266L305.645 34.3125C306.1 34.3663 306.557 34.4 307.012 34.418L308.418 34.4727C308.819 34.4884 309.225 34.426 309.637 34.2812L311.043 33.7891C311.596 33.5948 312.16 33.5594 312.723 33.6875L314.129 34.0078C314.535 34.1004 314.94 34.1119 315.344 34.0469L316.75 33.8203C317.26 33.7385 317.771 33.7227 318.281 33.7734L319.688 33.9141C320.136 33.9586 320.583 33.9786 321.031 33.9688L322.438 33.9375C322.885 33.9276 323.333 33.8883 323.781 33.8242L324.484 33.7266L325.188 33.625C325.723 33.5485 326.226 33.5912 326.672 33.7891L327.148 34H328V34.4531L328.352 34.2852L328.453 34.5L328.5 34.6016V34.8164Z" fill="#E8B4B8"/>
</svg>
